<svg width="32" height="32" viewBox="0 0 32 32" fill="none" xmlns="http://www.w3.org/2000/svg">
<rect width="32" height="32" fill="#020C02" style="fill:#020C02;fill:color(display-p3 0.0078 0.0471 0.0078);fill-opacity:1;"/>
<path d="M9.27361 12.84C9.13861 12.84 9.01861 12.81 8.91361 12.735C8.98861 12.84 9.01861 12.96 9.01861 13.095C9.01861 13.47 8.71861 13.77 8.34361 13.77C8.20861 13.77 8.08861 13.74 7.98361 13.665C8.05861 13.77 8.08861 13.89 8.08861 14.025C8.08861 14.4 7.78861 14.7 7.41361 14.7C7.27861 14.7 7.15861 14.67 7.05361 14.595C7.12861 14.7 7.15861 14.82 7.15861 14.955C7.15861 15.09 7.12861 15.21 7.05361 15.315C7.15861 15.24 7.27861 15.21 7.41361 15.21C7.59361 15.21 7.75861 15.285 7.87861 15.39C7.99861 15.285 8.16361 15.21 8.34361 15.21C8.71861 15.21 9.01861 15.51 9.01861 15.885C9.01861 16.02 8.98861 16.14 8.91361 16.245C9.01861 16.17 9.13861 16.14 9.27361 16.14C9.64861 16.14 9.94861 16.44 9.94861 16.815C9.94861 16.95 9.91861 17.07 9.84361 17.175C9.94861 17.1 10.0686 17.07 10.2036 17.07C10.5786 17.07 10.8786 17.37 10.8786 17.745C10.8786 17.925 10.8036 18.09 10.6986 18.21C10.8036 18.33 10.8786 18.495 10.8786 18.675C10.8786 19.05 10.5786 19.35 10.2036 19.35C10.0686 19.35 9.94861 19.32 9.84361 19.245C9.91861 19.35 9.94861 19.47 9.94861 19.605C9.94861 19.98 9.64861 20.28 9.27361 20.28C9.13861 20.28 9.01861 20.25 8.91361 20.175C8.98861 20.28 9.01861 20.4 9.01861 20.535C9.01861 20.91 8.71861 21.21 8.34361 21.21C8.16361 21.21 7.99861 21.135 7.87861 21.03C7.75861 21.135 7.59361 21.21 7.41361 21.21C7.23361 21.21 7.06861 21.135 6.94861 21.03C6.82861 21.135 6.66361 21.21 6.48361 21.21C6.30361 21.21 6.13861 21.135 6.01861 21.03C5.89861 21.135 5.73361 21.21 5.55361 21.21C5.17861 21.21 4.87861 20.91 4.87861 20.535C4.87861 20.4 4.90861 20.28 4.98361 20.175C4.87861 20.25 4.75861 20.28 4.62361 20.28C4.24861 20.28 3.94861 19.98 3.94861 19.605C3.94861 19.23 4.24861 18.93 4.62361 18.93C4.99861 18.93 5.29861 19.23 5.29861 19.605C5.29861 19.74 5.26861 19.86 5.19361 19.965C5.29861 19.89 5.41861 19.86 5.55361 19.86C5.73361 19.86 5.89861 19.935 6.01861 20.04C6.13861 19.935 6.30361 19.86 6.48361 19.86C6.66361 19.86 6.82861 19.935 6.94861 20.04C7.06861 19.935 7.23361 19.86 7.41361 19.86C7.59361 19.86 7.75861 19.935 7.87861 20.04C7.99861 19.935 8.16361 19.86 8.34361 19.86C8.47861 19.86 8.59861 19.89 8.70361 19.965C8.62861 19.86 8.59861 19.74 8.59861 19.605C8.59861 19.23 8.89861 18.93 9.27361 18.93C9.40861 18.93 9.52861 18.96 9.63361 19.035C9.55861 18.93 9.52861 18.81 9.52861 18.675C9.52861 18.495 9.60361 18.33 9.70861 18.21C9.60361 18.09 9.52861 17.925 9.52861 17.745C9.52861 17.61 9.55861 17.49 9.63361 17.385C9.52861 17.46 9.40861 17.49 9.27361 17.49C8.89861 17.49 8.59861 17.19 8.59861 16.815C8.59861 16.68 8.62861 16.56 8.70361 16.455C8.59861 16.53 8.47861 16.56 8.34361 16.56C8.16361 16.56 7.99861 16.485 7.87861 16.38C7.75861 16.485 7.59361 16.56 7.41361 16.56C7.23361 16.56 7.06861 16.485 6.94861 16.38C6.82861 16.485 6.66361 16.56 6.48361 16.56C6.30361 16.56 6.13861 16.485 6.01861 16.38C5.89861 16.485 5.73361 16.56 5.55361 16.56C5.17861 16.56 4.87861 16.26 4.87861 15.885C4.87861 15.51 5.17861 15.21 5.55361 15.21C5.68861 15.21 5.80861 15.24 5.91361 15.315C5.83861 15.21 5.80861 15.09 5.80861 14.955C5.80861 14.58 6.10861 14.28 6.48361 14.28C6.61861 14.28 6.73861 14.31 6.84361 14.385C6.76861 14.28 6.73861 14.16 6.73861 14.025C6.73861 13.65 7.03861 13.35 7.41361 13.35C7.54861 13.35 7.66861 13.38 7.77361 13.455C7.69861 13.35 7.66861 13.23 7.66861 13.095C7.66861 12.72 7.96861 12.42 8.34361 12.42C8.47861 12.42 8.59861 12.45 8.70361 12.525C8.62861 12.42 8.59861 12.3 8.59861 12.165C8.59861 12.03 8.62861 11.91 8.70361 11.805C8.59861 11.88 8.47861 11.91 8.34361 11.91C8.16361 11.91 7.99861 11.835 7.87861 11.73C7.75861 11.835 7.59361 11.91 7.41361 11.91C7.23361 11.91 7.06861 11.835 6.94861 11.73C6.82861 11.835 6.66361 11.91 6.48361 11.91C6.30361 11.91 6.13861 11.835 6.01861 11.73C5.89861 11.835 5.73361 11.91 5.55361 11.91C5.37361 11.91 5.20861 11.835 5.08861 11.73C4.96861 11.835 4.80361 11.91 4.62361 11.91C4.24861 11.91 3.94861 11.61 3.94861 11.235C3.94861 10.86 4.24861 10.56 4.62361 10.56C4.80361 10.56 4.96861 10.635 5.08861 10.74C5.20861 10.635 5.37361 10.56 5.55361 10.56C5.73361 10.56 5.89861 10.635 6.01861 10.74C6.13861 10.635 6.30361 10.56 6.48361 10.56C6.66361 10.56 6.82861 10.635 6.94861 10.74C7.06861 10.635 7.23361 10.56 7.41361 10.56C7.59361 10.56 7.75861 10.635 7.87861 10.74C7.99861 10.635 8.16361 10.56 8.34361 10.56C8.52361 10.56 8.68861 10.635 8.80861 10.74C8.92861 10.635 9.09361 10.56 9.27361 10.56C9.45361 10.56 9.61861 10.635 9.73861 10.74C9.85861 10.635 10.0236 10.56 10.2036 10.56C10.5786 10.56 10.8786 10.86 10.8786 11.235C10.8786 11.61 10.5786 11.91 10.2036 11.91C10.0686 11.91 9.94861 11.88 9.84361 11.805C9.91861 11.91 9.94861 12.03 9.94861 12.165C9.94861 12.54 9.64861 12.84 9.27361 12.84ZM14.8479 11.91C14.7129 11.91 14.5929 11.88 14.4879 11.805C14.5629 11.91 14.5929 12.03 14.5929 12.165C14.5929 12.54 14.2929 12.84 13.9179 12.84C13.7829 12.84 13.6629 12.81 13.5579 12.735C13.6329 12.84 13.6629 12.96 13.6629 13.095C13.6629 13.275 13.5879 13.44 13.4829 13.56C13.5879 13.68 13.6629 13.845 13.6629 14.025C13.6629 14.16 13.6329 14.28 13.5579 14.385C13.6629 14.31 13.7829 14.28 13.9179 14.28C14.2929 14.28 14.5929 14.58 14.5929 14.955C14.5929 15.09 14.5629 15.21 14.4879 15.315C14.5929 15.24 14.7129 15.21 14.8479 15.21C15.2229 15.21 15.5229 15.51 15.5229 15.885C15.5229 16.02 15.4929 16.14 15.4179 16.245C15.5229 16.17 15.6429 16.14 15.7779 16.14C16.1529 16.14 16.4529 16.44 16.4529 16.815C16.4529 16.95 16.4229 17.07 16.3479 17.175C16.4529 17.1 16.5729 17.07 16.7079 17.07C17.0829 17.07 17.3829 17.37 17.3829 17.745C17.3829 17.88 17.3529 18 17.2779 18.105C17.3829 18.03 17.5029 18 17.6379 18C17.7729 18 17.8929 18.03 17.9979 18.105C17.9229 18 17.8929 17.88 17.8929 17.745C17.8929 17.565 17.9679 17.4 18.0729 17.28C17.9679 17.16 17.8929 16.995 17.8929 16.815C17.8929 16.635 17.9679 16.47 18.0729 16.35C17.9679 16.23 17.8929 16.065 17.8929 15.885C17.8929 15.51 18.1929 15.21 18.5679 15.21C18.9429 15.21 19.2429 15.51 19.2429 15.885C19.2429 16.065 19.1679 16.23 19.0629 16.35C19.1679 16.47 19.2429 16.635 19.2429 16.815C19.2429 16.995 19.1679 17.16 19.0629 17.28C19.1679 17.4 19.2429 17.565 19.2429 17.745C19.2429 18.12 18.9429 18.42 18.5679 18.42C18.4329 18.42 18.3129 18.39 18.2079 18.315C18.2829 18.42 18.3129 18.54 18.3129 18.675C18.3129 18.81 18.2829 18.93 18.2079 19.035C18.3129 18.96 18.4329 18.93 18.5679 18.93C18.9429 18.93 19.2429 19.23 19.2429 19.605C19.2429 19.74 19.2129 19.86 19.1379 19.965C19.2429 19.89 19.3629 19.86 19.4979 19.86C19.8729 19.86 20.1729 20.16 20.1729 20.535C20.1729 20.91 19.8729 21.21 19.4979 21.21C19.1229 21.21 18.8229 20.91 18.8229 20.535C18.8229 20.4 18.8529 20.28 18.9279 20.175C18.8229 20.25 18.7029 20.28 18.5679 20.28C18.1929 20.28 17.8929 19.98 17.8929 19.605C17.8929 19.47 17.9229 19.35 17.9979 19.245C17.8929 19.32 17.7729 19.35 17.6379 19.35C17.5029 19.35 17.3829 19.32 17.2779 19.245C17.3529 19.35 17.3829 19.47 17.3829 19.605C17.3829 19.98 17.0829 20.28 16.7079 20.28C16.5729 20.28 16.4529 20.25 16.3479 20.175C16.4229 20.28 16.4529 20.4 16.4529 20.535C16.4529 20.91 16.1529 21.21 15.7779 21.21C15.5979 21.21 15.4329 21.135 15.3129 21.03C15.1929 21.135 15.0279 21.21 14.8479 21.21C14.4729 21.21 14.1729 20.91 14.1729 20.535C14.1729 20.4 14.2029 20.28 14.2779 20.175C14.1729 20.25 14.0529 20.28 13.9179 20.28C13.5429 20.28 13.2429 19.98 13.2429 19.605C13.2429 19.47 13.2729 19.35 13.3479 19.245C13.2429 19.32 13.1229 19.35 12.9879 19.35C12.6129 19.35 12.3129 19.05 12.3129 18.675C12.3129 18.495 12.3879 18.33 12.4929 18.21C12.3879 18.09 12.3129 17.925 12.3129 17.745C12.3129 17.37 12.6129 17.07 12.9879 17.07C13.1229 17.07 13.2429 17.1 13.3479 17.175C13.2729 17.07 13.2429 16.95 13.2429 16.815C13.2429 16.44 13.5429 16.14 13.9179 16.14C14.0529 16.14 14.1729 16.17 14.2779 16.245C14.2029 16.14 14.1729 16.02 14.1729 15.885C14.1729 15.75 14.2029 15.63 14.2779 15.525C14.1729 15.6 14.0529 15.63 13.9179 15.63C13.5429 15.63 13.2429 15.33 13.2429 14.955C13.2429 14.82 13.2729 14.7 13.3479 14.595C13.2429 14.67 13.1229 14.7 12.9879 14.7C12.6129 14.7 12.3129 14.4 12.3129 14.025C12.3129 13.845 12.3879 13.68 12.4929 13.56C12.3879 13.44 12.3129 13.275 12.3129 13.095C12.3129 12.72 12.6129 12.42 12.9879 12.42C13.1229 12.42 13.2429 12.45 13.3479 12.525C13.2729 12.42 13.2429 12.3 13.2429 12.165C13.2429 11.79 13.5429 11.49 13.9179 11.49C14.0529 11.49 14.1729 11.52 14.2779 11.595C14.2029 11.49 14.1729 11.37 14.1729 11.235C14.1729 10.86 14.4729 10.56 14.8479 10.56C15.0279 10.56 15.1929 10.635 15.3129 10.74C15.4329 10.635 15.5979 10.56 15.7779 10.56C15.9579 10.56 16.1229 10.635 16.2429 10.74C16.3629 10.635 16.5279 10.56 16.7079 10.56C17.0829 10.56 17.3829 10.86 17.3829 11.235C17.3829 11.37 17.3529 11.49 17.2779 11.595C17.3829 11.52 17.5029 11.49 17.6379 11.49C18.0129 11.49 18.3129 11.79 18.3129 12.165C18.3129 12.54 18.0129 12.84 17.6379 12.84C17.2629 12.84 16.9629 12.54 16.9629 12.165C16.9629 12.03 16.9929 11.91 17.0679 11.805C16.9629 11.88 16.8429 11.91 16.7079 11.91C16.5279 11.91 16.3629 11.835 16.2429 11.73C16.1229 11.835 15.9579 11.91 15.7779 11.91C15.5979 11.91 15.4329 11.835 15.3129 11.73C15.1929 11.835 15.0279 11.91 14.8479 11.91ZM15.7779 17.49C15.4029 17.49 15.1029 17.19 15.1029 16.815C15.1029 16.68 15.1329 16.56 15.2079 16.455C15.1029 16.53 14.9829 16.56 14.8479 16.56C14.7129 16.56 14.5929 16.53 14.4879 16.455C14.5629 16.56 14.5929 16.68 14.5929 16.815C14.5929 17.19 14.2929 17.49 13.9179 17.49C13.7829 17.49 13.6629 17.46 13.5579 17.385C13.6329 17.49 13.6629 17.61 13.6629 17.745C13.6629 17.925 13.5879 18.09 13.4829 18.21C13.5879 18.33 13.6629 18.495 13.6629 18.675C13.6629 18.81 13.6329 18.93 13.5579 19.035C13.6629 18.96 13.7829 18.93 13.9179 18.93C14.2929 18.93 14.5929 19.23 14.5929 19.605C14.5929 19.74 14.5629 19.86 14.4879 19.965C14.5929 19.89 14.7129 19.86 14.8479 19.86C15.0279 19.86 15.1929 19.935 15.3129 20.04C15.4329 19.935 15.5979 19.86 15.7779 19.86C15.9129 19.86 16.0329 19.89 16.1379 19.965C16.0629 19.86 16.0329 19.74 16.0329 19.605C16.0329 19.23 16.3329 18.93 16.7079 18.93C16.8429 18.93 16.9629 18.96 17.0679 19.035C16.9929 18.93 16.9629 18.81 16.9629 18.675C16.9629 18.54 16.9929 18.42 17.0679 18.315C16.9629 18.39 16.8429 18.42 16.7079 18.42C16.3329 18.42 16.0329 18.12 16.0329 17.745C16.0329 17.61 16.0629 17.49 16.1379 17.385C16.0329 17.46 15.9129 17.49 15.7779 17.49ZM26.4521 12.84C26.3171 12.84 26.1971 12.81 26.0921 12.735C26.1671 12.84 26.1971 12.96 26.1971 13.095C26.1971 13.47 25.8971 13.77 25.5221 13.77C25.3871 13.77 25.2671 13.74 25.1621 13.665C25.2371 13.77 25.2671 13.89 25.2671 14.025C25.2671 14.4 24.9671 14.7 24.5921 14.7C24.4571 14.7 24.3371 14.67 24.2321 14.595C24.3071 14.7 24.3371 14.82 24.3371 14.955C24.3371 15.09 24.3071 15.21 24.2321 15.315C24.3371 15.24 24.4571 15.21 24.5921 15.21C24.7721 15.21 24.9371 15.285 25.0571 15.39C25.1771 15.285 25.3421 15.21 25.5221 15.21C25.8971 15.21 26.1971 15.51 26.1971 15.885C26.1971 16.02 26.1671 16.14 26.0921 16.245C26.1971 16.17 26.3171 16.14 26.4521 16.14C26.8271 16.14 27.1271 16.44 27.1271 16.815C27.1271 16.95 27.0971 17.07 27.0221 17.175C27.1271 17.1 27.2471 17.07 27.3821 17.07C27.7571 17.07 28.0571 17.37 28.0571 17.745C28.0571 17.925 27.9821 18.09 27.8771 18.21C27.9821 18.33 28.0571 18.495 28.0571 18.675C28.0571 19.05 27.7571 19.35 27.3821 19.35C27.2471 19.35 27.1271 19.32 27.0221 19.245C27.0971 19.35 27.1271 19.47 27.1271 19.605C27.1271 19.98 26.8271 20.28 26.4521 20.28C26.3171 20.28 26.1971 20.25 26.0921 20.175C26.1671 20.28 26.1971 20.4 26.1971 20.535C26.1971 20.91 25.8971 21.21 25.5221 21.21C25.3421 21.21 25.1771 21.135 25.0571 21.03C24.9371 21.135 24.7721 21.21 24.5921 21.21C24.4121 21.21 24.2471 21.135 24.1271 21.03C24.0071 21.135 23.8421 21.21 23.6621 21.21C23.4821 21.21 23.3171 21.135 23.1971 21.03C23.0771 21.135 22.9121 21.21 22.7321 21.21C22.3571 21.21 22.0571 20.91 22.0571 20.535C22.0571 20.4 22.0871 20.28 22.1621 20.175C22.0571 20.25 21.9371 20.28 21.8021 20.28C21.4271 20.28 21.1271 19.98 21.1271 19.605C21.1271 19.23 21.4271 18.93 21.8021 18.93C22.1771 18.93 22.4771 19.23 22.4771 19.605C22.4771 19.74 22.4471 19.86 22.3721 19.965C22.4771 19.89 22.5971 19.86 22.7321 19.86C22.9121 19.86 23.0771 19.935 23.1971 20.04C23.3171 19.935 23.4821 19.86 23.6621 19.86C23.8421 19.86 24.0071 19.935 24.1271 20.04C24.2471 19.935 24.4121 19.86 24.5921 19.86C24.7721 19.86 24.9371 19.935 25.0571 20.04C25.1771 19.935 25.3421 19.86 25.5221 19.86C25.6571 19.86 25.7771 19.89 25.8821 19.965C25.8071 19.86 25.7771 19.74 25.7771 19.605C25.7771 19.23 26.0771 18.93 26.4521 18.93C26.5871 18.93 26.7071 18.96 26.8121 19.035C26.7371 18.93 26.7071 18.81 26.7071 18.675C26.7071 18.495 26.7821 18.33 26.8871 18.21C26.7821 18.09 26.7071 17.925 26.7071 17.745C26.7071 17.61 26.7371 17.49 26.8121 17.385C26.7071 17.46 26.5871 17.49 26.4521 17.49C26.0771 17.49 25.7771 17.19 25.7771 16.815C25.7771 16.68 25.8071 16.56 25.8821 16.455C25.7771 16.53 25.6571 16.56 25.5221 16.56C25.3421 16.56 25.1771 16.485 25.0571 16.38C24.9371 16.485 24.7721 16.56 24.5921 16.56C24.4121 16.56 24.2471 16.485 24.1271 16.38C24.0071 16.485 23.8421 16.56 23.6621 16.56C23.4821 16.56 23.3171 16.485 23.1971 16.38C23.0771 16.485 22.9121 16.56 22.7321 16.56C22.3571 16.56 22.0571 16.26 22.0571 15.885C22.0571 15.51 22.3571 15.21 22.7321 15.21C22.8671 15.21 22.9871 15.24 23.0921 15.315C23.0171 15.21 22.9871 15.09 22.9871 14.955C22.9871 14.58 23.2871 14.28 23.6621 14.28C23.7971 14.28 23.9171 14.31 24.0221 14.385C23.9471 14.28 23.9171 14.16 23.9171 14.025C23.9171 13.65 24.2171 13.35 24.5921 13.35C24.7271 13.35 24.8471 13.38 24.9521 13.455C24.8771 13.35 24.8471 13.23 24.8471 13.095C24.8471 12.72 25.1471 12.42 25.5221 12.42C25.6571 12.42 25.7771 12.45 25.8821 12.525C25.8071 12.42 25.7771 12.3 25.7771 12.165C25.7771 12.03 25.8071 11.91 25.8821 11.805C25.7771 11.88 25.6571 11.91 25.5221 11.91C25.3421 11.91 25.1771 11.835 25.0571 11.73C24.9371 11.835 24.7721 11.91 24.5921 11.91C24.4121 11.91 24.2471 11.835 24.1271 11.73C24.0071 11.835 23.8421 11.91 23.6621 11.91C23.4821 11.91 23.3171 11.835 23.1971 11.73C23.0771 11.835 22.9121 11.91 22.7321 11.91C22.5521 11.91 22.3871 11.835 22.2671 11.73C22.1471 11.835 21.9821 11.91 21.8021 11.91C21.4271 11.91 21.1271 11.61 21.1271 11.235C21.1271 10.86 21.4271 10.56 21.8021 10.56C21.9821 10.56 22.1471 10.635 22.2671 10.74C22.3871 10.635 22.5521 10.56 22.7321 10.56C22.9121 10.56 23.0771 10.635 23.1971 10.74C23.3171 10.635 23.4821 10.56 23.6621 10.56C23.8421 10.56 24.0071 10.635 24.1271 10.74C24.2471 10.635 24.4121 10.56 24.5921 10.56C24.7721 10.56 24.9371 10.635 25.0571 10.74C25.1771 10.635 25.3421 10.56 25.5221 10.56C25.7021 10.56 25.8671 10.635 25.9871 10.74C26.1071 10.635 26.2721 10.56 26.4521 10.56C26.6321 10.56 26.7971 10.635 26.9171 10.74C27.0371 10.635 27.2021 10.56 27.3821 10.56C27.7571 10.56 28.0571 10.86 28.0571 11.235C28.0571 11.61 27.7571 11.91 27.3821 11.91C27.2471 11.91 27.1271 11.88 27.0221 11.805C27.0971 11.91 27.1271 12.03 27.1271 12.165C27.1271 12.54 26.8271 12.84 26.4521 12.84Z" fill="#00CC25" style="fill:#00CC25;fill:color(display-p3 0.0000 0.8016 0.1470);fill-opacity:1;"/>
</svg>
