<svg width="16" height="16" viewBox="0 0 16 16" fill="none" xmlns="http://www.w3.org/2000/svg">
<path d="M1.93787 5.76056C1.83269 5.76056 1.73627 5.71831 1.66615 5.65915C1.59603 5.71831 1.49961 5.76056 1.39443 5.76056C1.1753 5.76056 1 5.59155 1 5.38028C1 5.16901 1.1753 5 1.39443 5C1.49961 5 1.59603 5.04225 1.66615 5.10141C1.73627 5.04225 1.83269 5 1.93787 5C2.04305 5 2.13947 5.04225 2.20959 5.10141C2.27971 5.04225 2.37613 5 2.48131 5C2.58649 5 2.68291 5.04225 2.75303 5.10141C2.82315 5.04225 2.91957 5 3.02475 5C3.12993 5 3.22635 5.04225 3.29647 5.10141C3.36659 5.04225 3.46301 5 3.56819 5C3.67337 5 3.76979 5.04225 3.83991 5.10141C3.91003 5.04225 4.00645 5 4.11163 5C4.21681 5 4.31323 5.04225 4.38335 5.10141C4.45347 5.04225 4.54989 5 4.65507 5C4.8742 5 5.0495 5.16901 5.0495 5.38028C5.0495 5.48169 5.00567 5.57465 4.94432 5.64225C5.00567 5.70986 5.0495 5.80282 5.0495 5.90423C5.0495 6.11549 4.8742 6.28451 4.65507 6.28451C4.57618 6.28451 4.50606 6.26761 4.4447 6.22535C4.48853 6.28451 4.50606 6.35211 4.50606 6.42817C4.50606 6.63944 4.33076 6.80845 4.11163 6.80845C4.03274 6.80845 3.96262 6.79155 3.90126 6.7493C3.94509 6.80845 3.96262 6.87606 3.96262 6.95211C3.96262 7.16338 3.78732 7.33239 3.56819 7.33239C3.4893 7.33239 3.41918 7.31549 3.35783 7.27324C3.40165 7.33239 3.41918 7.4 3.41918 7.47606C3.41918 7.55211 3.40165 7.61972 3.35783 7.67887C3.41918 7.63662 3.4893 7.61972 3.56819 7.61972C3.78732 7.61972 3.96262 7.78873 3.96262 8C3.96262 8.07606 3.94509 8.14366 3.90126 8.20282C3.96262 8.16056 4.03274 8.14366 4.11163 8.14366C4.33076 8.14366 4.50606 8.31268 4.50606 8.52394C4.50606 8.6 4.48853 8.66761 4.4447 8.72676C4.50606 8.68451 4.57618 8.66761 4.65507 8.66761C4.8742 8.66761 5.0495 8.83662 5.0495 9.04789C5.0495 9.1493 5.00567 9.24225 4.94432 9.30986C5.00567 9.37746 5.0495 9.47042 5.0495 9.57183C5.0495 9.7831 4.8742 9.95211 4.65507 9.95211C4.57618 9.95211 4.50606 9.93521 4.4447 9.89296C4.48853 9.95211 4.50606 10.0197 4.50606 10.0958C4.50606 10.307 4.33076 10.4761 4.11163 10.4761C4.03274 10.4761 3.96262 10.4592 3.90126 10.4169C3.94509 10.4761 3.96262 10.5437 3.96262 10.6197C3.96262 10.831 3.78732 11 3.56819 11C3.46301 11 3.36659 10.9577 3.29647 10.8986C3.22635 10.9577 3.12993 11 3.02475 11C2.91957 11 2.82315 10.9577 2.75303 10.8986C2.68291 10.9577 2.58649 11 2.48131 11C2.37613 11 2.27971 10.9577 2.20959 10.8986C2.13947 10.9577 2.04305 11 1.93787 11C1.71874 11 1.54344 10.831 1.54344 10.6197C1.54344 10.5437 1.56097 10.4761 1.6048 10.4169C1.54344 10.4592 1.47332 10.4761 1.39443 10.4761C1.1753 10.4761 1 10.307 1 10.0958C1 9.99437 1.04383 9.90141 1.10518 9.8338C1.04383 9.7662 1 9.67324 1 9.57183C1 9.36056 1.1753 9.19155 1.39443 9.19155C1.49961 9.19155 1.59603 9.2338 1.66615 9.29296C1.73627 9.2338 1.83269 9.19155 1.93787 9.19155C2.157 9.19155 2.3323 9.36056 2.3323 9.57183C2.3323 9.67324 2.28848 9.7662 2.22712 9.8338C2.28848 9.90141 2.3323 9.99437 2.3323 10.0958C2.3323 10.1718 2.31477 10.2394 2.27095 10.2986C2.3323 10.2563 2.40242 10.2394 2.48131 10.2394C2.58649 10.2394 2.68291 10.2817 2.75303 10.3408C2.82315 10.2817 2.91957 10.2394 3.02475 10.2394C3.10364 10.2394 3.17376 10.2563 3.23511 10.2986C3.19129 10.2394 3.17376 10.1718 3.17376 10.0958C3.17376 9.88451 3.34906 9.71549 3.56819 9.71549C3.64708 9.71549 3.7172 9.73239 3.77855 9.77465C3.73473 9.71549 3.7172 9.64789 3.7172 9.57183C3.7172 9.47042 3.76102 9.37746 3.82238 9.30986C3.76102 9.24225 3.7172 9.1493 3.7172 9.04789C3.7172 8.97183 3.73473 8.90423 3.77855 8.84507C3.7172 8.88732 3.64708 8.90423 3.56819 8.90423C3.34906 8.90423 3.17376 8.73521 3.17376 8.52394C3.17376 8.44789 3.19129 8.38028 3.23511 8.32113C3.17376 8.36338 3.10364 8.38028 3.02475 8.38028C2.91957 8.38028 2.82315 8.33803 2.75303 8.27887C2.68291 8.33803 2.58649 8.38028 2.48131 8.38028C2.37613 8.38028 2.27971 8.33803 2.20959 8.27887C2.13947 8.33803 2.04305 8.38028 1.93787 8.38028C1.71874 8.38028 1.54344 8.21127 1.54344 8C1.54344 7.78873 1.71874 7.61972 1.93787 7.61972C2.01676 7.61972 2.08688 7.63662 2.14823 7.67887C2.10441 7.61972 2.08688 7.55211 2.08688 7.47606C2.08688 7.26479 2.26218 7.09577 2.48131 7.09577C2.5602 7.09577 2.63032 7.11268 2.69167 7.15493C2.64785 7.09577 2.63032 7.02817 2.63032 6.95211C2.63032 6.74084 2.80562 6.57183 3.02475 6.57183C3.10364 6.57183 3.17376 6.58873 3.23511 6.63099C3.19129 6.57183 3.17376 6.50423 3.17376 6.42817C3.17376 6.2169 3.34906 6.04789 3.56819 6.04789C3.64708 6.04789 3.7172 6.06479 3.77855 6.10704C3.73473 6.04789 3.7172 5.98028 3.7172 5.90423C3.7172 5.82817 3.73473 5.76056 3.77855 5.70141C3.7172 5.74366 3.64708 5.76056 3.56819 5.76056C3.46301 5.76056 3.36659 5.71831 3.29647 5.65915C3.22635 5.71831 3.12993 5.76056 3.02475 5.76056C2.91957 5.76056 2.82315 5.71831 2.75303 5.65915C2.68291 5.71831 2.58649 5.76056 2.48131 5.76056C2.37613 5.76056 2.27971 5.71831 2.20959 5.65915C2.13947 5.71831 2.04305 5.76056 1.93787 5.76056Z" fill="#00CC25" style="fill:#00CC25;fill:color(display-p3 0.0000 0.8016 0.1470);fill-opacity:1;"/>
<path d="M7.36891 6.28451C7.29002 6.28451 7.2199 6.26761 7.15855 6.22535C7.20237 6.28451 7.2199 6.35211 7.2199 6.42817C7.2199 6.52958 7.17608 6.62253 7.11472 6.69014C7.17608 6.75775 7.2199 6.8507 7.2199 6.95211C7.2199 7.05352 7.17608 7.14648 7.11472 7.21408C7.17608 7.28169 7.2199 7.37465 7.2199 7.47606C7.2199 7.55211 7.20237 7.61972 7.15855 7.67887C7.2199 7.63662 7.29002 7.61972 7.36891 7.61972C7.58804 7.61972 7.76334 7.78873 7.76334 8C7.76334 8.07606 7.74581 8.14366 7.70199 8.20282C7.76334 8.16056 7.83346 8.14366 7.91235 8.14366C8.13148 8.14366 8.30678 8.31268 8.30678 8.52394C8.30678 8.6 8.28925 8.66761 8.24542 8.72676C8.30678 8.68451 8.3769 8.66761 8.45579 8.66761C8.67492 8.66761 8.85022 8.83662 8.85022 9.04789C8.85022 9.12394 8.83269 9.19155 8.78886 9.2507C8.85022 9.20845 8.92034 9.19155 8.99923 9.19155C9.07811 9.19155 9.14824 9.20845 9.20959 9.2507C9.16577 9.19155 9.14823 9.12394 9.14823 9.04789C9.14823 8.94648 9.19206 8.85352 9.25342 8.78592C9.19206 8.71831 9.14823 8.62535 9.14823 8.52394C9.14823 8.42253 9.19206 8.32958 9.25342 8.26197C9.19206 8.19437 9.14823 8.10141 9.14823 8C9.14823 7.78873 9.32354 7.61972 9.54267 7.61972C9.7618 7.61972 9.9371 7.78873 9.9371 8C9.9371 8.10141 9.89327 8.19437 9.83192 8.26197C9.89327 8.32958 9.9371 8.42253 9.9371 8.52394C9.9371 8.62535 9.89327 8.71831 9.83192 8.78592C9.89327 8.85352 9.9371 8.94648 9.9371 9.04789C9.9371 9.25915 9.7618 9.42817 9.54267 9.42817C9.46378 9.42817 9.39366 9.41127 9.3323 9.36901C9.37613 9.42817 9.39366 9.49577 9.39366 9.57183C9.39366 9.64789 9.37613 9.71549 9.3323 9.77465C9.39366 9.73239 9.46378 9.71549 9.54267 9.71549C9.7618 9.71549 9.9371 9.88451 9.9371 10.0958C9.9371 10.1972 9.89327 10.2901 9.83192 10.3577C9.89327 10.4254 9.9371 10.5183 9.9371 10.6197C9.9371 10.831 9.7618 11 9.54267 11C9.32354 11 9.14823 10.831 9.14823 10.6197C9.14823 10.5437 9.16577 10.4761 9.20959 10.4169C9.14824 10.4592 9.07811 10.4761 8.99923 10.4761C8.92034 10.4761 8.85022 10.4592 8.78886 10.4169C8.83269 10.4761 8.85022 10.5437 8.85022 10.6197C8.85022 10.831 8.67492 11 8.45579 11C8.35061 11 8.25419 10.9577 8.18407 10.8986C8.11395 10.9577 8.01753 11 7.91235 11C7.80717 11 7.71075 10.9577 7.64063 10.8986C7.57051 10.9577 7.47409 11 7.36891 11C7.14978 11 6.97448 10.831 6.97448 10.6197C6.97448 10.5437 6.99201 10.4761 7.03583 10.4169C6.97448 10.4592 6.90436 10.4761 6.82547 10.4761C6.60634 10.4761 6.43104 10.307 6.43104 10.0958C6.43104 10.0197 6.44857 9.95211 6.49239 9.89296C6.43104 9.93521 6.36092 9.95211 6.28203 9.95211C6.0629 9.95211 5.8876 9.7831 5.8876 9.57183C5.8876 9.47042 5.93142 9.37746 5.99278 9.30986C5.93142 9.24225 5.8876 9.1493 5.8876 9.04789C5.8876 8.83662 6.0629 8.66761 6.28203 8.66761C6.36092 8.66761 6.43104 8.68451 6.49239 8.72676C6.44857 8.66761 6.43104 8.6 6.43104 8.52394C6.43104 8.42253 6.47486 8.32958 6.53622 8.26197C6.47486 8.19437 6.43104 8.10141 6.43104 8C6.43104 7.92394 6.44857 7.85634 6.49239 7.79718C6.43104 7.83944 6.36092 7.85634 6.28203 7.85634C6.0629 7.85634 5.8876 7.68732 5.8876 7.47606C5.8876 7.37465 5.93142 7.28169 5.99278 7.21408C5.93142 7.14648 5.8876 7.05352 5.8876 6.95211C5.8876 6.8507 5.93142 6.75775 5.99278 6.69014C5.93142 6.62253 5.8876 6.52958 5.8876 6.42817C5.8876 6.2169 6.0629 6.04789 6.28203 6.04789C6.36092 6.04789 6.43104 6.06479 6.49239 6.10704C6.44857 6.04789 6.43104 5.98028 6.43104 5.90423C6.43104 5.69296 6.60634 5.52394 6.82547 5.52394C6.90436 5.52394 6.97448 5.54085 7.03583 5.5831C6.99201 5.52394 6.97448 5.45634 6.97448 5.38028C6.97448 5.16901 7.14978 5 7.36891 5C7.47409 5 7.57051 5.04225 7.64063 5.10141C7.71075 5.04225 7.80717 5 7.91235 5C8.01753 5 8.11395 5.04225 8.18407 5.10141C8.25419 5.04225 8.35061 5 8.45579 5C8.67492 5 8.85022 5.16901 8.85022 5.38028C8.85022 5.45634 8.83269 5.52394 8.78886 5.5831C8.85022 5.54085 8.92034 5.52394 8.99923 5.52394C9.21836 5.52394 9.39366 5.69296 9.39366 5.90423C9.39366 6.11549 9.21836 6.28451 8.99923 6.28451C8.89405 6.28451 8.79763 6.24225 8.72751 6.1831C8.65739 6.24225 8.56097 6.28451 8.45579 6.28451C8.23666 6.28451 8.06136 6.11549 8.06136 5.90423C8.06136 5.82817 8.07889 5.76056 8.12271 5.70141C8.06136 5.74366 7.99124 5.76056 7.91235 5.76056C7.83346 5.76056 7.76334 5.74366 7.70199 5.70141C7.74581 5.76056 7.76334 5.82817 7.76334 5.90423C7.76334 6.11549 7.58804 6.28451 7.36891 6.28451ZM7.91235 9.42817C7.69322 9.42817 7.51792 9.25915 7.51792 9.04789C7.51792 8.97183 7.53545 8.90423 7.57927 8.84507C7.51792 8.88732 7.4478 8.90423 7.36891 8.90423C7.29002 8.90423 7.2199 8.88732 7.15855 8.84507C7.20237 8.90423 7.2199 8.97183 7.2199 9.04789C7.2199 9.1493 7.17608 9.24225 7.11472 9.30986C7.17608 9.37746 7.2199 9.47042 7.2199 9.57183C7.2199 9.64789 7.20237 9.71549 7.15855 9.77465C7.2199 9.73239 7.29002 9.71549 7.36891 9.71549C7.58804 9.71549 7.76334 9.88451 7.76334 10.0958C7.76334 10.1718 7.74581 10.2394 7.70199 10.2986C7.76334 10.2563 7.83346 10.2394 7.91235 10.2394C8.01753 10.2394 8.11395 10.2817 8.18407 10.3408C8.25419 10.2817 8.35061 10.2394 8.45579 10.2394C8.53467 10.2394 8.6048 10.2563 8.66615 10.2986C8.62233 10.2394 8.6048 10.1718 8.6048 10.0958C8.6048 10.0197 8.62233 9.95211 8.66615 9.89296C8.6048 9.93521 8.53467 9.95211 8.45579 9.95211C8.23666 9.95211 8.06136 9.7831 8.06136 9.57183C8.06136 9.49577 8.07889 9.42817 8.12271 9.36901C8.06136 9.41127 7.99124 9.42817 7.91235 9.42817Z" fill="#00CC25" style="fill:#00CC25;fill:color(display-p3 0.0000 0.8016 0.1470);fill-opacity:1;"/>
<path d="M11.8884 5.76056C11.7832 5.76056 11.6868 5.71831 11.6167 5.65915C11.5465 5.71831 11.4501 5.76056 11.3449 5.76056C11.1258 5.76056 10.9505 5.59155 10.9505 5.38028C10.9505 5.16901 11.1258 5 11.3449 5C11.4501 5 11.5465 5.04225 11.6167 5.10141C11.6868 5.04225 11.7832 5 11.8884 5C11.9936 5 12.09 5.04225 12.1601 5.10141C12.2302 5.04225 12.3266 5 12.4318 5C12.537 5 12.6334 5.04225 12.7035 5.10141C12.7737 5.04225 12.8701 5 12.9752 5C13.0804 5 13.1768 5.04225 13.247 5.10141C13.3171 5.04225 13.4135 5 13.5187 5C13.6239 5 13.7203 5.04225 13.7904 5.10141C13.8605 5.04225 13.9569 5 14.0621 5C14.1673 5 14.2637 5.04225 14.3338 5.10141C14.404 5.04225 14.5004 5 14.6056 5C14.8247 5 15 5.16901 15 5.38028C15 5.48169 14.9562 5.57465 14.8948 5.64225C14.9562 5.70986 15 5.80282 15 5.90423C15 6.11549 14.8247 6.28451 14.6056 6.28451C14.5267 6.28451 14.4566 6.26761 14.3952 6.22535C14.439 6.28451 14.4566 6.35211 14.4566 6.42817C14.4566 6.63944 14.2813 6.80845 14.0621 6.80845C13.9832 6.80845 13.9131 6.79155 13.8518 6.7493C13.8956 6.80845 13.9131 6.87606 13.9131 6.95211C13.9131 7.16338 13.7378 7.33239 13.5187 7.33239C13.4398 7.33239 13.3697 7.31549 13.3083 7.27324C13.3522 7.33239 13.3697 7.4 13.3697 7.47606C13.3697 7.55211 13.3522 7.61972 13.3083 7.67887C13.3697 7.63662 13.4398 7.61972 13.5187 7.61972C13.7378 7.61972 13.9131 7.78873 13.9131 8C13.9131 8.07606 13.8956 8.14366 13.8518 8.20282C13.9131 8.16056 13.9832 8.14366 14.0621 8.14366C14.2813 8.14366 14.4566 8.31268 14.4566 8.52394C14.4566 8.6 14.439 8.66761 14.3952 8.72676C14.4566 8.68451 14.5267 8.66761 14.6056 8.66761C14.8247 8.66761 15 8.83662 15 9.04789C15 9.1493 14.9562 9.24225 14.8948 9.30986C14.9562 9.37746 15 9.47042 15 9.57183C15 9.7831 14.8247 9.95211 14.6056 9.95211C14.5267 9.95211 14.4566 9.93521 14.3952 9.89296C14.439 9.95211 14.4566 10.0197 14.4566 10.0958C14.4566 10.307 14.2813 10.4761 14.0621 10.4761C13.9832 10.4761 13.9131 10.4592 13.8518 10.4169C13.8956 10.4761 13.9131 10.5437 13.9131 10.6197C13.9131 10.831 13.7378 11 13.5187 11C13.4135 11 13.3171 10.9577 13.247 10.8986C13.1768 10.9577 13.0804 11 12.9752 11C12.8701 11 12.7737 10.9577 12.7035 10.8986C12.6334 10.9577 12.537 11 12.4318 11C12.3266 11 12.2302 10.9577 12.1601 10.8986C12.09 10.9577 11.9936 11 11.8884 11C11.6692 11 11.4939 10.831 11.4939 10.6197C11.4939 10.5437 11.5115 10.4761 11.5553 10.4169C11.4939 10.4592 11.4238 10.4761 11.3449 10.4761C11.1258 10.4761 10.9505 10.307 10.9505 10.0958C10.9505 9.99437 10.9943 9.90141 11.0557 9.8338C10.9943 9.7662 10.9505 9.67324 10.9505 9.57183C10.9505 9.36056 11.1258 9.19155 11.3449 9.19155C11.4501 9.19155 11.5465 9.2338 11.6167 9.29296C11.6868 9.2338 11.7832 9.19155 11.8884 9.19155C12.1075 9.19155 12.2828 9.36056 12.2828 9.57183C12.2828 9.67324 12.239 9.7662 12.1776 9.8338C12.239 9.90141 12.2828 9.99437 12.2828 10.0958C12.2828 10.1718 12.2653 10.2394 12.2214 10.2986C12.2828 10.2563 12.3529 10.2394 12.4318 10.2394C12.537 10.2394 12.6334 10.2817 12.7035 10.3408C12.7737 10.2817 12.8701 10.2394 12.9752 10.2394C13.0541 10.2394 13.1243 10.2563 13.1856 10.2986C13.1418 10.2394 13.1243 10.1718 13.1243 10.0958C13.1243 9.88451 13.2996 9.71549 13.5187 9.71549C13.5976 9.71549 13.6677 9.73239 13.7291 9.77465C13.6852 9.71549 13.6677 9.64789 13.6677 9.57183C13.6677 9.47042 13.7115 9.37746 13.7729 9.30986C13.7115 9.24225 13.6677 9.1493 13.6677 9.04789C13.6677 8.97183 13.6852 8.90423 13.7291 8.84507C13.6677 8.88732 13.5976 8.90423 13.5187 8.90423C13.2996 8.90423 13.1243 8.73521 13.1243 8.52394C13.1243 8.44789 13.1418 8.38028 13.1856 8.32113C13.1243 8.36338 13.0541 8.38028 12.9752 8.38028C12.8701 8.38028 12.7737 8.33803 12.7035 8.27887C12.6334 8.33803 12.537 8.38028 12.4318 8.38028C12.3266 8.38028 12.2302 8.33803 12.1601 8.27887C12.09 8.33803 11.9936 8.38028 11.8884 8.38028C11.6692 8.38028 11.4939 8.21127 11.4939 8C11.4939 7.78873 11.6692 7.61972 11.8884 7.61972C11.9673 7.61972 12.0374 7.63662 12.0987 7.67887C12.0549 7.61972 12.0374 7.55211 12.0374 7.47606C12.0374 7.26479 12.2127 7.09577 12.4318 7.09577C12.5107 7.09577 12.5808 7.11268 12.6422 7.15493C12.5983 7.09577 12.5808 7.02817 12.5808 6.95211C12.5808 6.74084 12.7561 6.57183 12.9752 6.57183C13.0541 6.57183 13.1243 6.58873 13.1856 6.63099C13.1418 6.57183 13.1243 6.50423 13.1243 6.42817C13.1243 6.2169 13.2996 6.04789 13.5187 6.04789C13.5976 6.04789 13.6677 6.06479 13.7291 6.10704C13.6852 6.04789 13.6677 5.98028 13.6677 5.90423C13.6677 5.82817 13.6852 5.76056 13.7291 5.70141C13.6677 5.74366 13.5976 5.76056 13.5187 5.76056C13.4135 5.76056 13.3171 5.71831 13.247 5.65915C13.1768 5.71831 13.0804 5.76056 12.9752 5.76056C12.8701 5.76056 12.7737 5.71831 12.7035 5.65915C12.6334 5.71831 12.537 5.76056 12.4318 5.76056C12.3266 5.76056 12.2302 5.71831 12.1601 5.65915C12.09 5.71831 11.9936 5.76056 11.8884 5.76056Z" fill="#00CC25" style="fill:#00CC25;fill:color(display-p3 0.0000 0.8016 0.1470);fill-opacity:1;"/>
</svg>
