<svg width="180" height="180" viewBox="0 0 180 180" fill="none" xmlns="http://www.w3.org/2000/svg">
<rect width="180" height="180" fill="#020C02" style="fill:#020C02;fill:color(display-p3 0.0078 0.0471 0.0078);fill-opacity:1;"/>
<path d="M22.1231 64.632C20.9711 64.632 19.9151 64.152 19.1471 63.48C18.3791 64.152 17.3231 64.632 16.1711 64.632C13.7711 64.632 11.8511 62.712 11.8511 60.312C11.8511 57.912 13.7711 55.992 16.1711 55.992C17.3231 55.992 18.3791 56.472 19.1471 57.144C19.9151 56.472 20.9711 55.992 22.1231 55.992C23.2751 55.992 24.3311 56.472 25.0991 57.144C25.8671 56.472 26.9231 55.992 28.0751 55.992C29.2271 55.992 30.2831 56.472 31.0511 57.144C31.8191 56.472 32.8751 55.992 34.0271 55.992C35.1791 55.992 36.2351 56.472 37.0031 57.144C37.7711 56.472 38.8271 55.992 39.9791 55.992C41.1311 55.992 42.1871 56.472 42.9551 57.144C43.7231 56.472 44.7791 55.992 45.9311 55.992C47.0831 55.992 48.1391 56.472 48.9071 57.144C49.6751 56.472 50.7311 55.992 51.8831 55.992C54.2831 55.992 56.2031 57.912 56.2031 60.312C56.2031 61.464 55.7231 62.52 55.0511 63.288C55.7231 64.056 56.2031 65.112 56.2031 66.264C56.2031 68.664 54.2831 70.584 51.8831 70.584C51.0191 70.584 50.2511 70.392 49.5791 69.912C50.0591 70.584 50.2511 71.352 50.2511 72.216C50.2511 74.616 48.3311 76.536 45.9311 76.536C45.0671 76.536 44.2991 76.344 43.6271 75.864C44.1071 76.536 44.2991 77.304 44.2991 78.168C44.2991 80.568 42.3791 82.488 39.9791 82.488C39.1151 82.488 38.3471 82.296 37.6751 81.816C38.1551 82.488 38.3471 83.256 38.3471 84.12C38.3471 84.984 38.1551 85.752 37.6751 86.424C38.3471 85.944 39.1151 85.752 39.9791 85.752C42.3791 85.752 44.2991 87.672 44.2991 90.072C44.2991 90.936 44.1071 91.704 43.6271 92.376C44.2991 91.896 45.0671 91.704 45.9311 91.704C48.3311 91.704 50.2511 93.624 50.2511 96.024C50.2511 96.888 50.0591 97.656 49.5791 98.328C50.2511 97.848 51.0191 97.656 51.8831 97.656C54.2831 97.656 56.2031 99.576 56.2031 101.976C56.2031 103.128 55.7231 104.184 55.0511 104.952C55.7231 105.72 56.2031 106.776 56.2031 107.928C56.2031 110.328 54.2831 112.248 51.8831 112.248C51.0191 112.248 50.2511 112.056 49.5791 111.576C50.0591 112.248 50.2511 113.016 50.2511 113.88C50.2511 116.28 48.3311 118.2 45.9311 118.2C45.0671 118.2 44.2991 118.008 43.6271 117.528C44.1071 118.2 44.2991 118.968 44.2991 119.832C44.2991 122.232 42.3791 124.152 39.9791 124.152C38.8271 124.152 37.7711 123.672 37.0031 123C36.2351 123.672 35.1791 124.152 34.0271 124.152C32.8751 124.152 31.8191 123.672 31.0511 123C30.2831 123.672 29.2271 124.152 28.0751 124.152C26.9231 124.152 25.8671 123.672 25.0991 123C24.3311 123.672 23.2751 124.152 22.1231 124.152C19.7231 124.152 17.8031 122.232 17.8031 119.832C17.8031 118.968 17.9951 118.2 18.4751 117.528C17.8031 118.008 17.0351 118.2 16.1711 118.2C13.7711 118.2 11.8511 116.28 11.8511 113.88C11.8511 112.728 12.3311 111.672 13.0031 110.904C12.3311 110.136 11.8511 109.08 11.8511 107.928C11.8511 105.528 13.7711 103.608 16.1711 103.608C17.3231 103.608 18.3791 104.088 19.1471 104.76C19.9151 104.088 20.9711 103.608 22.1231 103.608C24.5231 103.608 26.4431 105.528 26.4431 107.928C26.4431 109.08 25.9631 110.136 25.2911 110.904C25.9631 111.672 26.4431 112.728 26.4431 113.88C26.4431 114.744 26.2511 115.512 25.7711 116.184C26.4431 115.704 27.2111 115.512 28.0751 115.512C29.2271 115.512 30.2831 115.992 31.0511 116.664C31.8191 115.992 32.8751 115.512 34.0271 115.512C34.8911 115.512 35.6591 115.704 36.3311 116.184C35.8511 115.512 35.6591 114.744 35.6591 113.88C35.6591 111.48 37.5791 109.56 39.9791 109.56C40.8431 109.56 41.6111 109.752 42.2831 110.232C41.8031 109.56 41.6111 108.792 41.6111 107.928C41.6111 106.776 42.0911 105.72 42.7631 104.952C42.0911 104.184 41.6111 103.128 41.6111 101.976C41.6111 101.112 41.8031 100.344 42.2831 99.672C41.6111 100.152 40.8431 100.344 39.9791 100.344C37.5791 100.344 35.6591 98.424 35.6591 96.024C35.6591 95.16 35.8511 94.392 36.3311 93.72C35.6591 94.2 34.8911 94.392 34.0271 94.392C32.8751 94.392 31.8191 93.912 31.0511 93.24C30.2831 93.912 29.2271 94.392 28.0751 94.392C26.9231 94.392 25.8671 93.912 25.0991 93.24C24.3311 93.912 23.2751 94.392 22.1231 94.392C19.7231 94.392 17.8031 92.472 17.8031 90.072C17.8031 87.672 19.7231 85.752 22.1231 85.752C22.9871 85.752 23.7551 85.944 24.4271 86.424C23.9471 85.752 23.7551 84.984 23.7551 84.12C23.7551 81.72 25.6751 79.8 28.0751 79.8C28.9391 79.8 29.7071 79.992 30.3791 80.472C29.8991 79.8 29.7071 79.032 29.7071 78.168C29.7071 75.768 31.6271 73.848 34.0271 73.848C34.8911 73.848 35.6591 74.04 36.3311 74.52C35.8511 73.848 35.6591 73.08 35.6591 72.216C35.6591 69.816 37.5791 67.896 39.9791 67.896C40.8431 67.896 41.6111 68.088 42.2831 68.568C41.8031 67.896 41.6111 67.128 41.6111 66.264C41.6111 65.4 41.8031 64.632 42.2831 63.96C41.6111 64.44 40.8431 64.632 39.9791 64.632C38.8271 64.632 37.7711 64.152 37.0031 63.48C36.2351 64.152 35.1791 64.632 34.0271 64.632C32.8751 64.632 31.8191 64.152 31.0511 63.48C30.2831 64.152 29.2271 64.632 28.0751 64.632C26.9231 64.632 25.8671 64.152 25.0991 63.48C24.3311 64.152 23.2751 64.632 22.1231 64.632ZM81.6064 70.584C80.7424 70.584 79.9744 70.392 79.3024 69.912C79.7824 70.584 79.9744 71.352 79.9744 72.216C79.9744 73.368 79.4944 74.424 78.8224 75.192C79.4944 75.96 79.9744 77.016 79.9744 78.168C79.9744 79.32 79.4944 80.376 78.8224 81.144C79.4944 81.912 79.9744 82.968 79.9744 84.12C79.9744 84.984 79.7824 85.752 79.3024 86.424C79.9744 85.944 80.7424 85.752 81.6064 85.752C84.0064 85.752 85.9264 87.672 85.9264 90.072C85.9264 90.936 85.7344 91.704 85.2544 92.376C85.9264 91.896 86.6944 91.704 87.5584 91.704C89.9584 91.704 91.8784 93.624 91.8784 96.024C91.8784 96.888 91.6864 97.656 91.2064 98.328C91.8784 97.848 92.6464 97.656 93.5104 97.656C95.9104 97.656 97.8304 99.576 97.8304 101.976C97.8304 102.84 97.6384 103.608 97.1584 104.28C97.8304 103.8 98.5984 103.608 99.4624 103.608C100.326 103.608 101.094 103.8 101.766 104.28C101.286 103.608 101.094 102.84 101.094 101.976C101.094 100.824 101.574 99.768 102.246 99C101.574 98.232 101.094 97.176 101.094 96.024C101.094 94.872 101.574 93.816 102.246 93.048C101.574 92.28 101.094 91.224 101.094 90.072C101.094 87.672 103.014 85.752 105.414 85.752C107.814 85.752 109.734 87.672 109.734 90.072C109.734 91.224 109.254 92.28 108.582 93.048C109.254 93.816 109.734 94.872 109.734 96.024C109.734 97.176 109.254 98.232 108.582 99C109.254 99.768 109.734 100.824 109.734 101.976C109.734 104.376 107.814 106.296 105.414 106.296C104.55 106.296 103.782 106.104 103.11 105.624C103.59 106.296 103.782 107.064 103.782 107.928C103.782 108.792 103.59 109.56 103.11 110.232C103.782 109.752 104.55 109.56 105.414 109.56C107.814 109.56 109.734 111.48 109.734 113.88C109.734 115.032 109.254 116.088 108.582 116.856C109.254 117.624 109.734 118.68 109.734 119.832C109.734 122.232 107.814 124.152 105.414 124.152C103.014 124.152 101.094 122.232 101.094 119.832C101.094 118.968 101.286 118.2 101.766 117.528C101.094 118.008 100.326 118.2 99.4624 118.2C98.5984 118.2 97.8304 118.008 97.1584 117.528C97.6384 118.2 97.8304 118.968 97.8304 119.832C97.8304 122.232 95.9104 124.152 93.5104 124.152C92.3584 124.152 91.3024 123.672 90.5344 123C89.7664 123.672 88.7104 124.152 87.5584 124.152C86.4064 124.152 85.3504 123.672 84.5824 123C83.8144 123.672 82.7584 124.152 81.6064 124.152C79.2064 124.152 77.2864 122.232 77.2864 119.832C77.2864 118.968 77.4784 118.2 77.9584 117.528C77.2864 118.008 76.5184 118.2 75.6544 118.2C73.2544 118.2 71.3344 116.28 71.3344 113.88C71.3344 113.016 71.5264 112.248 72.0064 111.576C71.3344 112.056 70.5664 112.248 69.7024 112.248C67.3024 112.248 65.3824 110.328 65.3824 107.928C65.3824 106.776 65.8624 105.72 66.5344 104.952C65.8624 104.184 65.3824 103.128 65.3824 101.976C65.3824 99.576 67.3024 97.656 69.7024 97.656C70.5664 97.656 71.3344 97.848 72.0064 98.328C71.5264 97.656 71.3344 96.888 71.3344 96.024C71.3344 94.872 71.8144 93.816 72.4864 93.048C71.8144 92.28 71.3344 91.224 71.3344 90.072C71.3344 89.208 71.5264 88.44 72.0064 87.768C71.3344 88.248 70.5664 88.44 69.7024 88.44C67.3024 88.44 65.3824 86.52 65.3824 84.12C65.3824 82.968 65.8624 81.912 66.5344 81.144C65.8624 80.376 65.3824 79.32 65.3824 78.168C65.3824 77.016 65.8624 75.96 66.5344 75.192C65.8624 74.424 65.3824 73.368 65.3824 72.216C65.3824 69.816 67.3024 67.896 69.7024 67.896C70.5664 67.896 71.3344 68.088 72.0064 68.568C71.5264 67.896 71.3344 67.128 71.3344 66.264C71.3344 63.864 73.2544 61.944 75.6544 61.944C76.5184 61.944 77.2864 62.136 77.9584 62.616C77.4784 61.944 77.2864 61.176 77.2864 60.312C77.2864 57.912 79.2064 55.992 81.6064 55.992C82.7584 55.992 83.8144 56.472 84.5824 57.144C85.3504 56.472 86.4064 55.992 87.5584 55.992C88.7104 55.992 89.7664 56.472 90.5344 57.144C91.3024 56.472 92.3584 55.992 93.5104 55.992C95.9104 55.992 97.8304 57.912 97.8304 60.312C97.8304 61.176 97.6384 61.944 97.1584 62.616C97.8304 62.136 98.5984 61.944 99.4624 61.944C101.862 61.944 103.782 63.864 103.782 66.264C103.782 68.664 101.862 70.584 99.4624 70.584C98.3104 70.584 97.2544 70.104 96.4864 69.432C95.7184 70.104 94.6624 70.584 93.5104 70.584C91.1104 70.584 89.1904 68.664 89.1904 66.264C89.1904 65.4 89.3824 64.632 89.8624 63.96C89.1904 64.44 88.4224 64.632 87.5584 64.632C86.6944 64.632 85.9264 64.44 85.2544 63.96C85.7344 64.632 85.9264 65.4 85.9264 66.264C85.9264 68.664 84.0064 70.584 81.6064 70.584ZM87.5584 106.296C85.1584 106.296 83.2384 104.376 83.2384 101.976C83.2384 101.112 83.4304 100.344 83.9104 99.672C83.2384 100.152 82.4704 100.344 81.6064 100.344C80.7424 100.344 79.9744 100.152 79.3024 99.672C79.7824 100.344 79.9744 101.112 79.9744 101.976C79.9744 103.128 79.4944 104.184 78.8224 104.952C79.4944 105.72 79.9744 106.776 79.9744 107.928C79.9744 108.792 79.7824 109.56 79.3024 110.232C79.9744 109.752 80.7424 109.56 81.6064 109.56C84.0064 109.56 85.9264 111.48 85.9264 113.88C85.9264 114.744 85.7344 115.512 85.2544 116.184C85.9264 115.704 86.6944 115.512 87.5584 115.512C88.7104 115.512 89.7664 115.992 90.5344 116.664C91.3024 115.992 92.3584 115.512 93.5104 115.512C94.3744 115.512 95.1424 115.704 95.8144 116.184C95.3344 115.512 95.1424 114.744 95.1424 113.88C95.1424 113.016 95.3344 112.248 95.8144 111.576C95.1424 112.056 94.3744 112.248 93.5104 112.248C91.1104 112.248 89.1904 110.328 89.1904 107.928C89.1904 107.064 89.3824 106.296 89.8624 105.624C89.1904 106.104 88.4224 106.296 87.5584 106.296ZM131.106 64.632C129.954 64.632 128.898 64.152 128.13 63.48C127.362 64.152 126.306 64.632 125.154 64.632C122.754 64.632 120.834 62.712 120.834 60.312C120.834 57.912 122.754 55.992 125.154 55.992C126.306 55.992 127.362 56.472 128.13 57.144C128.898 56.472 129.954 55.992 131.106 55.992C132.258 55.992 133.314 56.472 134.082 57.144C134.85 56.472 135.906 55.992 137.058 55.992C138.21 55.992 139.266 56.472 140.034 57.144C140.802 56.472 141.858 55.992 143.01 55.992C144.162 55.992 145.218 56.472 145.986 57.144C146.754 56.472 147.81 55.992 148.962 55.992C150.114 55.992 151.17 56.472 151.938 57.144C152.706 56.472 153.762 55.992 154.914 55.992C156.066 55.992 157.122 56.472 157.89 57.144C158.658 56.472 159.714 55.992 160.866 55.992C163.266 55.992 165.186 57.912 165.186 60.312C165.186 61.464 164.706 62.52 164.034 63.288C164.706 64.056 165.186 65.112 165.186 66.264C165.186 68.664 163.266 70.584 160.866 70.584C160.002 70.584 159.234 70.392 158.562 69.912C159.042 70.584 159.234 71.352 159.234 72.216C159.234 74.616 157.314 76.536 154.914 76.536C154.05 76.536 153.282 76.344 152.61 75.864C153.09 76.536 153.282 77.304 153.282 78.168C153.282 80.568 151.362 82.488 148.962 82.488C148.098 82.488 147.33 82.296 146.658 81.816C147.138 82.488 147.33 83.256 147.33 84.12C147.33 84.984 147.138 85.752 146.658 86.424C147.33 85.944 148.098 85.752 148.962 85.752C151.362 85.752 153.282 87.672 153.282 90.072C153.282 90.936 153.09 91.704 152.61 92.376C153.282 91.896 154.05 91.704 154.914 91.704C157.314 91.704 159.234 93.624 159.234 96.024C159.234 96.888 159.042 97.656 158.562 98.328C159.234 97.848 160.002 97.656 160.866 97.656C163.266 97.656 165.186 99.576 165.186 101.976C165.186 103.128 164.706 104.184 164.034 104.952C164.706 105.72 165.186 106.776 165.186 107.928C165.186 110.328 163.266 112.248 160.866 112.248C160.002 112.248 159.234 112.056 158.562 111.576C159.042 112.248 159.234 113.016 159.234 113.88C159.234 116.28 157.314 118.2 154.914 118.2C154.05 118.2 153.282 118.008 152.61 117.528C153.09 118.2 153.282 118.968 153.282 119.832C153.282 122.232 151.362 124.152 148.962 124.152C147.81 124.152 146.754 123.672 145.986 123C145.218 123.672 144.162 124.152 143.01 124.152C141.858 124.152 140.802 123.672 140.034 123C139.266 123.672 138.21 124.152 137.058 124.152C135.906 124.152 134.85 123.672 134.082 123C133.314 123.672 132.258 124.152 131.106 124.152C128.706 124.152 126.786 122.232 126.786 119.832C126.786 118.968 126.978 118.2 127.458 117.528C126.786 118.008 126.018 118.2 125.154 118.2C122.754 118.2 120.834 116.28 120.834 113.88C120.834 112.728 121.314 111.672 121.986 110.904C121.314 110.136 120.834 109.08 120.834 107.928C120.834 105.528 122.754 103.608 125.154 103.608C126.306 103.608 127.362 104.088 128.13 104.76C128.898 104.088 129.954 103.608 131.106 103.608C133.506 103.608 135.426 105.528 135.426 107.928C135.426 109.08 134.946 110.136 134.274 110.904C134.946 111.672 135.426 112.728 135.426 113.88C135.426 114.744 135.234 115.512 134.754 116.184C135.426 115.704 136.194 115.512 137.058 115.512C138.21 115.512 139.266 115.992 140.034 116.664C140.802 115.992 141.858 115.512 143.01 115.512C143.874 115.512 144.642 115.704 145.314 116.184C144.834 115.512 144.642 114.744 144.642 113.88C144.642 111.48 146.562 109.56 148.962 109.56C149.826 109.56 150.594 109.752 151.266 110.232C150.786 109.56 150.594 108.792 150.594 107.928C150.594 106.776 151.074 105.72 151.746 104.952C151.074 104.184 150.594 103.128 150.594 101.976C150.594 101.112 150.786 100.344 151.266 99.672C150.594 100.152 149.826 100.344 148.962 100.344C146.562 100.344 144.642 98.424 144.642 96.024C144.642 95.16 144.834 94.392 145.314 93.72C144.642 94.2 143.874 94.392 143.01 94.392C141.858 94.392 140.802 93.912 140.034 93.24C139.266 93.912 138.21 94.392 137.058 94.392C135.906 94.392 134.85 93.912 134.082 93.24C133.314 93.912 132.258 94.392 131.106 94.392C128.706 94.392 126.786 92.472 126.786 90.072C126.786 87.672 128.706 85.752 131.106 85.752C131.97 85.752 132.738 85.944 133.41 86.424C132.93 85.752 132.738 84.984 132.738 84.12C132.738 81.72 134.658 79.8 137.058 79.8C137.922 79.8 138.69 79.992 139.362 80.472C138.882 79.8 138.69 79.032 138.69 78.168C138.69 75.768 140.61 73.848 143.01 73.848C143.874 73.848 144.642 74.04 145.314 74.52C144.834 73.848 144.642 73.08 144.642 72.216C144.642 69.816 146.562 67.896 148.962 67.896C149.826 67.896 150.594 68.088 151.266 68.568C150.786 67.896 150.594 67.128 150.594 66.264C150.594 65.4 150.786 64.632 151.266 63.96C150.594 64.44 149.826 64.632 148.962 64.632C147.81 64.632 146.754 64.152 145.986 63.48C145.218 64.152 144.162 64.632 143.01 64.632C141.858 64.632 140.802 64.152 140.034 63.48C139.266 64.152 138.21 64.632 137.058 64.632C135.906 64.632 134.85 64.152 134.082 63.48C133.314 64.152 132.258 64.632 131.106 64.632Z" fill="#00CC25" style="fill:#00CC25;fill:color(display-p3 0.0000 0.8016 0.1470);fill-opacity:1;"/>
</svg>
