<svg width="16" height="16" viewBox="0 0 16 16" fill="none" xmlns="http://www.w3.org/2000/svg">
<rect width="16" height="16" fill="#020C02" style="fill:#020C02;fill:color(display-p3 0.0078 0.0471 0.0078);fill-opacity:1;"/>
<path d="M4 11H1.85547V10.5723H1.42773V10.1445H1V9.28613H1.85547V9.7168H2.2832V10.1445H3.56934V9.7168H4V8.64453H3.56934V8.2168H2.2832V7.57227H3.56934V7.14453H4V6.28613H3.56934V5.8584H2.2832V6.28613H1.85547V6.7168H1V5.8584H1.42773V5.43066H1.85547V5H4V5.43066H4.42773V5.8584H4.85547V7.57227H4.42773V8.2168H4.85547V10.1445H4.42773V10.5723H4V11Z" fill="#00CC25" style="fill:#00CC25;fill:color(display-p3 0.0000 0.8016 0.1470);fill-opacity:1;"/>
<path d="M8.89867 11H6.32641V10.5723H5.89867V10.1445H5.47094V8.43066H5.89867V8H6.32641V7.57227H5.89867V5.8584H6.32641V5.43066H6.75414V5H8.25414V5.43066H8.6848V5.8584H9.11254V7.57227H8.6848V8H8.25414V8.43066H8.6848V8.8584H9.11254V9.28613H9.54027V8.2168H10.3987V9.28613H10.1848V10.1445H10.6125V11H9.54027V10.5723H8.89867V11ZM7.1848 7.57227H7.82641V7.14453H8.25414V6.28613H7.82641V5.8584H7.1848V6.28613H6.75414V7.14453H7.1848V7.57227ZM6.75414 10.1445H8.6848V9.7168H8.25414V9.28613H7.82641V8.8584H7.39867V8.43066H6.75414V8.8584H6.32641V9.7168H6.75414V10.1445Z" fill="#00CC25" style="fill:#00CC25;fill:color(display-p3 0.0000 0.8016 0.1470);fill-opacity:1;"/>
<path d="M13.8709 11H11.7264V10.5723H11.2987V10.1445H10.8709V9.28613H11.7264V9.7168H12.1541V10.1445H13.4403V9.7168H13.8709V8.64453H13.4403V8.2168H12.1541V7.57227H13.4403V7.14453H13.8709V6.28613H13.4403V5.8584H12.1541V6.28613H11.7264V6.7168H10.8709V5.8584H11.2987V5.43066H11.7264V5H13.8709V5.43066H14.2987V5.8584H14.7264V7.57227H14.2987V8.2168H14.7264V10.1445H14.2987V10.5723H13.8709V11Z" fill="#00CC25" style="fill:#00CC25;fill:color(display-p3 0.0000 0.8016 0.1470);fill-opacity:1;"/>
</svg>
