<svg
    width="159"
    height="72"
    viewBox="0 0 627 292"
    fill="none"
    xmlns="http://www.w3.org/2000/svg"
>
<path
        d="M383.222 128.754C373.513 128.754 365.746 136.42 365.746 145.987C365.746 150.587 367.687 154.793 370.409 157.86C367.687 160.926 365.746 165.133 365.746 169.732C365.746 174.332 367.687 178.539 370.409 181.605C367.687 184.672 365.746 188.878 365.746 193.478C365.746 196.925 366.525 199.991 368.467 202.678C365.746 200.764 362.641 199.991 359.141 199.991C355.64 199.991 352.536 200.751 349.814 202.678C351.756 199.991 352.536 196.925 352.536 193.478C352.536 183.899 344.768 176.246 335.059 176.246C331.558 176.246 328.454 177.006 325.733 178.932C327.674 176.246 328.454 173.179 328.454 169.732C328.454 160.153 320.686 152.5 310.977 152.5C307.476 152.5 304.372 153.26 301.651 155.186C303.593 152.5 304.372 149.433 304.372 145.987C304.372 136.407 296.604 128.754 286.895 128.754C283.394 128.754 280.29 129.514 277.569 131.441C279.511 128.754 280.29 125.688 280.29 122.241C280.29 117.642 278.348 113.435 275.627 110.368C278.348 107.302 280.29 103.095 280.29 98.4958C280.29 93.8958 278.348 89.6888 275.627 86.6228C278.348 83.5558 280.29 79.3498 280.29 74.7498C280.29 71.3038 279.511 68.2368 277.569 65.5508C280.29 67.4638 283.394 68.2368 286.895 68.2368C296.604 68.2368 304.372 60.5708 304.372 50.9908C304.372 47.5448 303.593 44.4778 301.651 41.7918C304.372 43.7048 307.476 44.4778 310.977 44.4778C314.478 44.4778 317.582 43.7178 320.303 41.7918C318.361 44.4778 317.582 47.5448 317.582 50.9908C317.582 60.5708 325.349 68.2368 335.059 68.2368C339.722 68.2368 343.989 66.3238 347.106 63.6368C350.211 66.3238 354.491 68.2368 359.154 68.2368C368.863 68.2368 376.631 60.5708 376.631 50.9908C376.631 41.4118 368.863 33.7458 359.154 33.7458C355.653 33.7458 352.549 34.5058 349.828 36.4318C351.769 33.7458 352.549 30.6788 352.549 27.2328C352.549 17.6528 344.781 9.98682 335.072 9.98682C330.409 9.98682 326.129 11.8998 323.024 14.5868C319.92 11.8998 315.64 9.98682 310.977 9.98682C306.314 9.98682 302.047 11.8998 298.929 14.5868C295.825 11.8998 291.545 9.98682 286.882 9.98682C277.173 9.98682 269.405 17.6528 269.405 27.2328C269.405 30.6788 270.184 33.7458 272.126 36.4318C269.405 34.5188 266.301 33.7458 262.8 33.7458C253.091 33.7458 245.323 41.4118 245.323 50.9908C245.323 54.4378 246.103 57.5038 248.044 60.1908C245.323 58.2768 242.219 57.5038 238.718 57.5038C229.009 57.5038 221.241 65.1708 221.241 74.7498C221.241 79.3498 223.183 83.5558 225.904 86.6228C223.183 89.6888 221.241 93.8958 221.241 98.4958C221.241 103.095 223.183 107.302 225.904 110.368C223.183 113.435 221.241 117.642 221.241 122.241C221.241 131.821 229.009 139.487 238.718 139.487C242.219 139.487 245.323 138.727 248.044 136.801C246.103 139.487 245.323 142.54 245.323 146C245.323 150.6 247.265 154.806 249.986 157.873C247.265 160.939 245.323 165.146 245.323 169.746C245.323 173.192 246.103 176.259 248.044 178.945C245.323 177.032 242.219 176.259 238.718 176.259C229.009 176.259 221.241 183.925 221.241 193.491C221.241 198.091 223.183 202.298 225.904 205.364C223.183 208.431 221.241 212.637 221.241 217.237C221.241 226.816 229.009 234.483 238.718 234.483C242.219 234.483 245.323 233.709 248.044 231.796C246.103 234.483 245.323 237.549 245.323 240.996C245.323 250.575 253.091 258.241 262.8 258.241C266.301 258.241 269.405 257.468 272.126 255.555C270.184 258.241 269.405 261.308 269.405 264.754C269.405 274.334 277.173 281.987 286.882 281.987C291.545 281.987 295.812 280.074 298.929 277.387C302.034 280.074 306.314 281.987 310.977 281.987C315.64 281.987 319.907 280.074 323.024 277.387C326.129 280.074 330.409 281.987 335.072 281.987C344.781 281.987 352.549 274.321 352.549 264.754C352.549 261.308 351.769 258.241 349.828 255.555C352.549 257.468 355.653 258.241 359.154 258.241C362.654 258.241 365.759 257.468 368.48 255.555C366.538 258.241 365.759 261.308 365.759 264.754C365.759 274.334 373.526 281.987 383.236 281.987C392.945 281.987 400.713 274.321 400.713 264.754C400.713 260.155 398.771 255.948 396.049 252.881C398.771 249.815 400.713 245.608 400.713 241.009C400.713 231.429 392.945 223.763 383.236 223.763C379.735 223.763 376.631 224.536 373.909 226.449C375.851 223.763 376.631 220.696 376.631 217.25C376.631 213.803 375.851 210.737 373.909 208.05C376.631 209.964 379.735 210.737 383.236 210.737C392.945 210.737 400.713 203.071 400.713 193.491C400.713 188.891 398.771 184.685 396.049 181.618C398.771 178.552 400.713 174.345 400.713 169.746C400.713 165.146 398.771 160.939 396.049 157.873C398.771 154.806 400.713 150.6 400.713 146C400.713 136.42 392.945 128.767 383.236 128.767L383.222 128.754ZM344.372 250.195C341.651 248.282 338.546 247.509 335.046 247.509C330.382 247.509 326.102 249.422 322.998 252.108C319.894 249.422 315.614 247.509 310.951 247.509C307.45 247.509 304.345 248.282 301.624 250.195C303.566 247.509 304.346 244.442 304.346 240.996C304.346 231.416 296.578 223.75 286.869 223.75C283.368 223.75 280.264 224.523 277.542 226.436C279.484 223.75 280.264 220.683 280.264 217.237C280.264 212.637 278.322 208.431 275.601 205.364C278.322 202.298 280.264 198.091 280.264 193.491C280.264 190.045 279.484 186.978 277.542 184.292C280.264 186.205 283.368 186.978 286.869 186.978C290.369 186.978 293.474 186.205 296.195 184.292C294.253 186.978 293.474 190.045 293.474 193.491C293.474 203.071 301.241 210.737 310.951 210.737C314.451 210.737 317.556 209.964 320.277 208.05C318.335 210.737 317.556 213.803 317.556 217.25C317.556 226.829 325.323 234.496 335.032 234.496C338.533 234.496 341.637 233.722 344.359 231.809C342.417 234.496 341.637 237.562 341.637 241.009C341.637 244.455 342.417 247.522 344.359 250.208L344.372 250.195Z"
        fill="#00CC25"
        style="fill:#00CC25;fill:color(display-p3 0.0000 0.8016 0.1470);fill-opacity:1;"
    />
<path
        d="M617 50.991C617 46.392 615.058 42.185 612.337 39.119C615.058 36.052 617 31.845 617 27.246C617 17.666 609.232 10 599.523 10C594.86 10 590.593 11.913 587.476 14.6C584.371 11.913 580.091 10 575.428 10C570.765 10 566.498 11.913 563.381 14.6C560.276 11.913 555.996 10 551.333 10C546.67 10 542.403 11.913 539.286 14.6C536.181 11.913 531.901 10 527.238 10C522.575 10 518.308 11.913 515.19 14.6C512.086 11.913 507.806 10 503.143 10C498.48 10 494.213 11.913 491.095 14.6C487.991 11.913 483.711 10 479.048 10C474.385 10 470.118 11.913 467 14.6C463.896 11.913 459.616 10 454.953 10C445.243 10 437.476 17.666 437.476 27.246C437.476 31.924 439.339 36.144 442.377 39.236C439.352 42.342 437.476 46.562 437.476 51.214C437.476 60.741 445.257 68.46 454.86 68.46C459.59 68.46 463.87 66.586 467 63.546C470.131 66.586 474.411 68.46 479.14 68.46C488.744 68.46 496.525 60.741 496.525 51.214C496.525 47.715 495.468 44.478 493.671 41.753C496.393 43.417 499.655 44.478 503.143 44.478C507.806 44.478 512.073 42.565 515.19 39.879C518.295 42.565 522.575 44.478 527.238 44.478C531.901 44.478 536.168 42.565 539.286 39.879C542.39 42.565 546.67 44.478 551.333 44.478C554.834 44.478 557.938 43.718 560.659 41.792C558.717 44.478 557.938 47.545 557.938 50.991C557.938 54.438 558.717 57.504 560.659 60.191C557.938 58.278 554.834 57.504 551.333 57.504C541.624 57.504 533.856 65.171 533.856 74.75C533.856 78.197 534.636 81.263 536.577 83.95C533.856 82.036 530.752 81.263 527.251 81.263C517.542 81.263 509.774 88.929 509.774 98.509C509.774 101.955 510.554 105.022 512.496 107.708C509.774 105.795 506.67 105.022 503.169 105.022C493.46 105.022 485.692 112.688 485.692 122.267C485.692 125.714 486.472 128.78 488.414 131.467C485.692 129.554 482.588 128.78 479.087 128.78C469.378 128.78 461.611 136.447 461.611 146.013C461.611 155.579 469.378 163.259 479.087 163.259C483.751 163.259 488.017 161.346 491.135 158.659C494.239 161.346 498.519 163.259 503.183 163.259C507.846 163.259 512.112 161.346 515.23 158.659C518.334 161.346 522.614 163.259 527.278 163.259C530.778 163.259 533.883 162.499 536.604 160.572C534.662 163.259 533.883 166.325 533.883 169.772C533.883 179.351 541.65 187.018 551.359 187.018C554.86 187.018 557.964 186.244 560.686 184.331C558.744 187.018 557.964 190.084 557.964 193.531C557.964 198.13 559.906 202.337 562.628 205.403C559.906 208.47 557.964 212.676 557.964 217.276C557.964 220.723 558.744 223.789 560.686 226.476C557.964 224.562 554.86 223.789 551.359 223.789C541.65 223.789 533.883 231.455 533.883 241.035C533.883 244.481 534.662 247.548 536.604 250.234C533.883 248.321 530.778 247.548 527.278 247.548C522.614 247.548 518.348 249.461 515.23 252.148C512.126 249.461 507.846 247.548 503.183 247.548C499.682 247.548 496.578 248.321 493.856 250.234C495.798 247.548 496.578 244.481 496.578 241.035C496.578 236.435 494.636 232.229 491.914 229.162C494.636 226.096 496.578 221.889 496.578 217.289C496.578 207.71 488.81 200.044 479.101 200.044C474.438 200.044 470.171 201.957 467.053 204.643C463.949 201.957 459.669 200.044 455.006 200.044C445.296 200.044 437.529 207.71 437.529 217.289C437.529 221.889 439.471 226.096 442.192 229.162C439.471 232.229 437.529 236.435 437.529 241.035C437.529 250.614 445.296 258.281 455.006 258.281C458.506 258.281 461.611 257.507 464.332 255.594C462.39 258.281 461.611 261.347 461.611 264.794C461.611 274.373 469.378 282.026 479.087 282.026C483.751 282.026 488.017 280.113 491.135 277.426C494.239 280.113 498.519 282.026 503.183 282.026C507.846 282.026 512.112 280.113 515.23 277.426C518.334 280.113 522.614 282.026 527.278 282.026C531.941 282.026 536.208 280.113 539.325 277.426C542.43 280.113 546.71 282.026 551.373 282.026C561.082 282.026 568.849 274.36 568.849 264.794C568.849 261.347 568.07 258.281 566.128 255.594C568.85 257.507 571.954 258.281 575.454 258.281C585.164 258.281 592.931 250.614 592.931 241.035C592.931 237.588 592.152 234.522 590.21 231.835C592.931 233.749 596.036 234.522 599.536 234.522C609.246 234.522 617.013 226.856 617.013 217.276C617.013 212.676 615.071 208.47 612.35 205.403C615.071 202.337 617.013 198.13 617.013 193.531C617.013 183.951 609.246 176.298 599.536 176.298C596.036 176.298 592.931 177.058 590.21 178.984C592.152 176.298 592.931 173.231 592.931 169.785C592.931 160.205 585.164 152.552 575.454 152.552C571.954 152.552 568.85 153.312 566.128 155.239C568.07 152.552 568.849 149.486 568.849 146.039C568.849 136.46 561.082 128.807 551.373 128.807C547.872 128.807 544.768 129.567 542.046 131.493C543.988 128.807 544.768 125.74 544.768 122.294C544.768 118.847 543.988 115.781 542.046 113.094C544.768 115.007 547.872 115.781 551.373 115.781C561.082 115.781 568.849 108.114 568.849 98.535C568.849 95.088 568.07 92.022 566.128 89.336C568.85 91.249 571.954 92.022 575.454 92.022C585.164 92.022 592.931 84.356 592.931 74.776C592.931 71.33 592.152 68.263 590.21 65.577C592.931 67.49 596.036 68.263 599.536 68.263C609.246 68.263 617.013 60.597 617.013 51.018L617 50.991Z"
        fill="#00CC25"
        style="fill:#00CC25;fill:color(display-p3 0.0000 0.8016 0.1470);fill-opacity:1;"
    />
<path
        d="M172.008 10C167.344 10 163.078 11.913 159.96 14.6C156.856 11.913 152.576 10 147.913 10C143.249 10 138.983 11.913 135.865 14.6C132.761 11.913 128.481 10 123.817 10C119.154 10 114.887 11.913 111.77 14.6C108.666 11.913 104.386 10 99.722 10C95.059 10 90.792 11.913 87.675 14.6C84.571 11.913 80.29 10 75.627 10C70.964 10 66.697 11.913 63.58 14.6C60.475 11.913 56.195 10 51.532 10C46.869 10 42.602 11.913 39.485 14.6C36.38 11.913 32.1 10 27.437 10C17.767 10 10 17.666 10 27.246C10 31.924 11.863 36.144 14.901 39.236C11.876 42.342 10 46.562 10 51.214C10 60.741 17.781 68.46 27.384 68.46C32.114 68.46 36.394 66.586 39.524 63.546C42.655 66.586 46.935 68.46 51.664 68.46C61.268 68.46 69.049 60.741 69.049 51.214C69.049 47.715 67.992 44.478 66.195 41.753C68.917 43.417 72.18 44.478 75.667 44.478C80.33 44.478 84.597 42.565 87.715 39.879C90.819 42.565 95.099 44.478 99.762 44.478C104.425 44.478 108.692 42.565 111.81 39.879C114.914 42.565 119.194 44.478 123.857 44.478C127.358 44.478 130.462 43.718 133.183 41.792C131.241 44.478 130.462 47.545 130.462 50.991C130.462 54.438 131.241 57.504 133.183 60.191C130.462 58.278 127.358 57.504 123.857 57.504C114.148 57.504 106.38 65.171 106.38 74.75C106.38 78.197 107.16 81.263 109.102 83.95C106.38 82.036 103.276 81.263 99.775 81.263C90.066 81.263 82.298 88.929 82.298 98.509C82.298 101.955 83.078 105.022 85.02 107.708C82.298 105.795 79.194 105.022 75.693 105.022C65.984 105.022 58.217 112.688 58.217 122.267C58.217 125.714 58.996 128.78 60.938 131.467C58.217 129.554 55.112 128.78 51.612 128.78C41.902 128.78 34.135 136.447 34.135 146.013C34.135 155.579 41.902 163.259 51.612 163.259C56.275 163.259 60.542 161.346 63.659 158.659C66.763 161.346 71.043 163.259 75.707 163.259C80.37 163.259 84.637 161.346 87.754 158.659C90.858 161.346 95.139 163.259 99.802 163.259C103.302 163.259 106.407 162.499 109.128 160.572C107.186 163.259 106.407 166.325 106.407 169.772C106.407 179.351 114.174 187.018 123.884 187.018C127.384 187.018 130.489 186.244 133.21 184.331C131.268 187.018 130.489 190.084 130.489 193.531C130.489 198.13 132.43 202.337 135.152 205.403C132.43 208.47 130.489 212.676 130.489 217.276C130.489 220.723 131.268 223.789 133.21 226.476C130.489 224.562 127.384 223.789 123.884 223.789C114.174 223.789 106.407 231.455 106.407 241.035C106.407 244.481 107.186 247.548 109.128 250.234C106.407 248.321 103.302 247.548 99.802 247.548C95.139 247.548 90.872 249.461 87.754 252.148C84.65 249.461 80.37 247.548 75.707 247.548C72.206 247.548 69.102 248.321 66.38 250.234C68.322 247.548 69.102 244.481 69.102 241.035C69.102 236.435 67.16 232.229 64.438 229.162C67.16 226.096 69.102 221.889 69.102 217.289C69.102 207.71 61.334 200.044 51.625 200.044C46.962 200.044 42.695 201.957 39.577 204.643C36.473 201.957 32.193 200.044 27.53 200.044C17.82 200.044 10.053 207.71 10.053 217.289C10.053 221.889 11.995 226.096 14.716 229.162C11.995 232.229 10.053 236.435 10.053 241.035C10.053 250.614 17.82 258.281 27.53 258.281C31.03 258.281 34.135 257.507 36.856 255.594C34.914 258.281 34.135 261.347 34.135 264.794C34.135 274.373 41.902 282.026 51.612 282.026C56.275 282.026 60.542 280.113 63.659 277.426C66.763 280.113 71.043 282.026 75.707 282.026C80.37 282.026 84.637 280.113 87.754 277.426C90.858 280.113 95.139 282.026 99.802 282.026C104.465 282.026 108.732 280.113 111.849 277.426C114.954 280.113 119.234 282.026 123.897 282.026C133.606 282.026 141.374 274.36 141.374 264.794C141.374 261.347 140.594 258.281 138.652 255.594C141.374 257.507 144.478 258.281 147.979 258.281C157.688 258.281 165.455 250.614 165.455 241.035C165.455 237.588 164.676 234.522 162.734 231.835C165.455 233.749 168.56 234.522 172.06 234.522C181.77 234.522 189.537 226.856 189.537 217.276C189.537 212.676 187.595 208.47 184.874 205.403C187.595 202.337 189.537 198.13 189.537 193.531C189.537 183.951 181.77 176.298 172.06 176.298C168.56 176.298 165.455 177.058 162.734 178.984C164.676 176.298 165.455 173.231 165.455 169.785C165.455 160.205 157.688 152.552 147.979 152.552C144.478 152.552 141.374 153.312 138.652 155.239C140.594 152.552 141.374 149.486 141.374 146.039C141.374 136.46 133.606 128.807 123.897 128.807C120.396 128.807 117.292 129.567 114.57 131.493C116.512 128.807 117.292 125.74 117.292 122.294C117.292 118.847 116.512 115.781 114.57 113.094C117.292 115.007 120.396 115.781 123.897 115.781C133.606 115.781 141.374 108.114 141.374 98.535C141.374 95.088 140.594 92.022 138.652 89.336C141.374 91.249 144.478 92.022 147.979 92.022C157.688 92.022 165.455 84.356 165.455 74.776C165.455 71.33 164.676 68.263 162.734 65.577C165.455 67.49 168.56 68.263 172.06 68.263C181.77 68.263 189.537 60.597 189.537 51.018C189.537 46.418 187.595 42.211 184.874 39.145C187.595 36.078 189.537 31.872 189.537 27.272C189.537 17.692 181.77 10.026 172.06 10.026L172.008 10Z"
        fill="#00CC25"
        style="fill:#00CC25;fill:color(display-p3 0.0000 0.8016 0.1470);fill-opacity:1;"
    />
</svg>
