<svg width="159" height="72" viewBox="0 0 159 72" fill="none" xmlns="http://www.w3.org/2000/svg">
<path d="M11.5 9.19999C10.3 9.19999 9.20005 8.7 8.40005 8C7.60005 8.7 6.50005 9.19999 5.30005 9.19999C2.80005 9.19999 0.800049 7.2 0.800049 4.69999C0.800049 2.2 2.80005 0.199997 5.30005 0.199997C6.50005 0.199997 7.60005 0.699996 8.40005 1.39999C9.20005 0.699996 10.3 0.199997 11.5 0.199997C12.7 0.199997 13.8 0.699996 14.6 1.39999C15.4 0.699996 16.5001 0.199997 17.7001 0.199997C18.9001 0.199997 20.0001 0.699996 20.8001 1.39999C21.6001 0.699996 22.7001 0.199997 23.9001 0.199997C25.1001 0.199997 26.2001 0.699996 27 1.39999C27.8001 0.699996 28.9001 0.199997 30.1 0.199997C31.3 0.199997 32.4001 0.699996 33.2001 1.39999C34.0001 0.699996 35.1001 0.199997 36.3001 0.199997C37.5001 0.199997 38.6001 0.699996 39.4001 1.39999C40.2001 0.699996 41.3001 0.199997 42.5001 0.199997C45.0001 0.199997 47.0001 2.2 47.0001 4.69999C47.0001 5.9 46.5 6.99999 45.8001 7.79999C46.5 8.6 47.0001 9.69999 47.0001 10.9C47.0001 13.4 45.0001 15.4 42.5001 15.4C41.6001 15.4 40.8001 15.2 40.1001 14.7C40.6001 15.4 40.8 16.2 40.8 17.1C40.8 19.6 38.8001 21.6 36.3001 21.6C35.4001 21.6 34.6001 21.4 33.9001 20.9C34.4001 21.6 34.6 22.4 34.6 23.3C34.6 25.8 32.6001 27.8 30.1 27.8C29.2 27.8 28.4 27.6 27.7 27.1C28.2001 27.8 28.4 28.6 28.4 29.5C28.4 30.4 28.2001 31.2 27.7 31.9C28.4 31.4 29.2 31.2 30.1 31.2C32.6001 31.2 34.6 33.2 34.6 35.7C34.6 36.6 34.4001 37.4 33.9001 38.1C34.6001 37.6 35.4001 37.4 36.3001 37.4C38.8001 37.4 40.8 39.4 40.8 41.9C40.8 42.8 40.6001 43.6 40.1001 44.3C40.8001 43.8 41.6001 43.6 42.5001 43.6C45.0001 43.6 47.0001 45.6 47.0001 48.1C47.0001 49.3 46.5 50.4 45.8001 51.2C46.5 52 47.0001 53.1 47.0001 54.3C47.0001 56.8 45.0001 58.8 42.5001 58.8C41.6001 58.8 40.8001 58.6 40.1001 58.1C40.6001 58.8 40.8 59.6 40.8 60.5C40.8 63 38.8001 65 36.3001 65C35.4001 65 34.6001 64.8 33.9001 64.3C34.4001 65 34.6 65.8 34.6 66.7C34.6 69.2 32.6001 71.2 30.1 71.2C28.9001 71.2 27.8001 70.7 27 70C26.2001 70.7 25.1001 71.2 23.9001 71.2C22.7001 71.2 21.6001 70.7 20.8001 70C20.0001 70.7 18.9001 71.2 17.7001 71.2C16.5001 71.2 15.4 70.7 14.6 70C13.8 70.7 12.7 71.2 11.5 71.2C9.00005 71.2 7.00005 69.2 7.00005 66.7C7.00005 65.8 7.20005 65 7.70005 64.3C7.00005 64.8 6.20005 65 5.30005 65C2.80005 65 0.800049 63 0.800049 60.5C0.800049 59.3 1.30005 58.2 2.00005 57.4C1.30005 56.6 0.800049 55.5 0.800049 54.3C0.800049 51.8 2.80005 49.8 5.30005 49.8C6.50005 49.8 7.60005 50.3 8.40005 51C9.20005 50.3 10.3 49.8 11.5 49.8C14 49.8 16 51.8 16 54.3C16 55.5 15.5 56.6 14.8 57.4C15.5 58.2 16 59.3 16 60.5C16 61.4 15.8 62.2 15.3 62.9C16 62.4 16.8001 62.2 17.7001 62.2C18.9001 62.2 20.0001 62.7 20.8001 63.4C21.6001 62.7 22.7001 62.2 23.9001 62.2C24.8001 62.2 25.6 62.4 26.3 62.9C25.8 62.2 25.6 61.4 25.6 60.5C25.6 58 27.6 56 30.1 56C31.0001 56 31.8 56.2 32.5 56.7C32.0001 56 31.8001 55.2 31.8001 54.3C31.8001 53.1 32.3 52 33 51.2C32.3 50.4 31.8001 49.3 31.8001 48.1C31.8001 47.2 32.0001 46.4 32.5 45.7C31.8 46.2 31.0001 46.4 30.1 46.4C27.6 46.4 25.6 44.4 25.6 41.9C25.6 41 25.8 40.2 26.3 39.5C25.6 40 24.8001 40.2 23.9001 40.2C22.7001 40.2 21.6001 39.7 20.8001 39C20.0001 39.7 18.9001 40.2 17.7001 40.2C16.5001 40.2 15.4 39.7 14.6 39C13.8 39.7 12.7 40.2 11.5 40.2C9.00005 40.2 7.00005 38.2 7.00005 35.7C7.00005 33.2 9.00005 31.2 11.5 31.2C12.4 31.2 13.2 31.4 13.9 31.9C13.4 31.2 13.2 30.4 13.2 29.5C13.2 27 15.2 25 17.7001 25C18.6001 25 19.4001 25.2 20.1 25.7C19.6001 25 19.4 24.2 19.4 23.3C19.4 20.8 21.4001 18.8 23.9001 18.8C24.8001 18.8 25.6 19 26.3 19.5C25.8 18.8 25.6 18 25.6 17.1C25.6 14.6 27.6 12.6 30.1 12.6C31.0001 12.6 31.8 12.8 32.5 13.3C32.0001 12.6 31.8001 11.8 31.8001 10.9C31.8001 10 32.0001 9.19999 32.5 8.5C31.8 9 31.0001 9.19999 30.1 9.19999C28.9001 9.19999 27.8001 8.7 27 8C26.2001 8.7 25.1001 9.19999 23.9001 9.19999C22.7001 9.19999 21.6001 8.7 20.8001 8C20.0001 8.7 18.9001 9.19999 17.7001 9.19999C16.5001 9.19999 15.4 8.7 14.6 8C13.8 8.7 12.7 9.19999 11.5 9.19999Z" fill="#00CC25" style="fill:#00CC25;fill:color(display-p3 0.0000 0.8016 0.1470);fill-opacity:1;"/>
<path d="M73.4618 15.4C72.5618 15.4 71.7618 15.2 71.0618 14.7C71.5618 15.4 71.7618 16.2 71.7618 17.1C71.7618 18.3 71.2618 19.4 70.5618 20.2C71.2618 21 71.7618 22.1 71.7618 23.3C71.7618 24.5 71.2618 25.6 70.5618 26.4C71.2618 27.2 71.7618 28.3 71.7618 29.5C71.7618 30.4 71.5618 31.2 71.0618 31.9C71.7618 31.4 72.5618 31.2 73.4618 31.2C75.9618 31.2 77.9618 33.2 77.9618 35.7C77.9618 36.6 77.7618 37.4 77.2618 38.1C77.9618 37.6 78.7618 37.4 79.6618 37.4C82.1618 37.4 84.1618 39.4 84.1618 41.9C84.1618 42.8 83.9618 43.6 83.4618 44.3C84.1618 43.8 84.9618 43.6 85.8618 43.6C88.3618 43.6 90.3618 45.6 90.3618 48.1C90.3618 49 90.1618 49.8 89.6618 50.5C90.3618 50 91.1618 49.8 92.0618 49.8C92.9618 49.8 93.7618 50 94.4618 50.5C93.9618 49.8 93.7618 49 93.7618 48.1C93.7618 46.9 94.2618 45.8 94.9618 45C94.2618 44.2 93.7618 43.1 93.7618 41.9C93.7618 40.7 94.2618 39.6 94.9618 38.8C94.2618 38 93.7618 36.9 93.7618 35.7C93.7618 33.2 95.7618 31.2 98.2618 31.2C100.762 31.2 102.762 33.2 102.762 35.7C102.762 36.9 102.262 38 101.562 38.8C102.262 39.6 102.762 40.7 102.762 41.9C102.762 43.1 102.262 44.2 101.562 45C102.262 45.8 102.762 46.9 102.762 48.1C102.762 50.6 100.762 52.6 98.2618 52.6C97.3618 52.6 96.5618 52.4 95.8618 51.9C96.3618 52.6 96.5618 53.4 96.5618 54.3C96.5618 55.2 96.3618 56 95.8618 56.7C96.5618 56.2 97.3618 56 98.2618 56C100.762 56 102.762 58 102.762 60.5C102.762 61.7 102.262 62.8 101.562 63.6C102.262 64.4 102.762 65.5 102.762 66.7C102.762 69.2 100.762 71.2 98.2618 71.2C95.7618 71.2 93.7618 69.2 93.7618 66.7C93.7618 65.8 93.9618 65 94.4618 64.3C93.7618 64.8 92.9618 65 92.0618 65C91.1618 65 90.3618 64.8 89.6618 64.3C90.1618 65 90.3618 65.8 90.3618 66.7C90.3618 69.2 88.3618 71.2 85.8618 71.2C84.6618 71.2 83.5618 70.7 82.7618 70C81.9618 70.7 80.8618 71.2 79.6618 71.2C78.4618 71.2 77.3618 70.7 76.5618 70C75.7618 70.7 74.6618 71.2 73.4618 71.2C70.9618 71.2 68.9618 69.2 68.9618 66.7C68.9618 65.8 69.1618 65 69.6618 64.3C68.9618 64.8 68.1618 65 67.2618 65C64.7618 65 62.7618 63 62.7618 60.5C62.7618 59.6 62.9618 58.8 63.4618 58.1C62.7618 58.6 61.9618 58.8 61.0618 58.8C58.5618 58.8 56.5618 56.8 56.5618 54.3C56.5618 53.1 57.0618 52 57.7618 51.2C57.0618 50.4 56.5618 49.3 56.5618 48.1C56.5618 45.6 58.5618 43.6 61.0618 43.6C61.9618 43.6 62.7618 43.8 63.4618 44.3C62.9618 43.6 62.7618 42.8 62.7618 41.9C62.7618 40.7 63.2618 39.6 63.9618 38.8C63.2618 38 62.7618 36.9 62.7618 35.7C62.7618 34.8 62.9618 34 63.4618 33.3C62.7618 33.8 61.9618 34 61.0618 34C58.5618 34 56.5618 32 56.5618 29.5C56.5618 28.3 57.0618 27.2 57.7618 26.4C57.0618 25.6 56.5618 24.5 56.5618 23.3C56.5618 22.1 57.0618 21 57.7618 20.2C57.0618 19.4 56.5618 18.3 56.5618 17.1C56.5618 14.6 58.5618 12.6 61.0618 12.6C61.9618 12.6 62.7618 12.8 63.4618 13.3C62.9618 12.6 62.7618 11.8 62.7618 10.9C62.7618 8.39999 64.7618 6.39999 67.2618 6.39999C68.1618 6.39999 68.9618 6.6 69.6618 7.1C69.1618 6.39999 68.9618 5.59999 68.9618 4.69999C68.9618 2.2 70.9618 0.199997 73.4618 0.199997C74.6618 0.199997 75.7618 0.699996 76.5618 1.39999C77.3618 0.699996 78.4618 0.199997 79.6618 0.199997C80.8618 0.199997 81.9618 0.699996 82.7618 1.39999C83.5618 0.699996 84.6618 0.199997 85.8618 0.199997C88.3618 0.199997 90.3618 2.2 90.3618 4.69999C90.3618 5.59999 90.1618 6.39999 89.6618 7.1C90.3618 6.6 91.1618 6.39999 92.0618 6.39999C94.5618 6.39999 96.5618 8.39999 96.5618 10.9C96.5618 13.4 94.5618 15.4 92.0618 15.4C90.8618 15.4 89.7618 14.9 88.9618 14.2C88.1618 14.9 87.0618 15.4 85.8618 15.4C83.3618 15.4 81.3618 13.4 81.3618 10.9C81.3618 10 81.5618 9.19999 82.0618 8.5C81.3618 9 80.5618 9.19999 79.6618 9.19999C78.7618 9.19999 77.9618 9 77.2618 8.5C77.7618 9.19999 77.9618 10 77.9618 10.9C77.9618 13.4 75.9618 15.4 73.4618 15.4ZM79.6618 52.6C77.1618 52.6 75.1618 50.6 75.1618 48.1C75.1618 47.2 75.3618 46.4 75.8618 45.7C75.1618 46.2 74.3618 46.4 73.4618 46.4C72.5618 46.4 71.7618 46.2 71.0618 45.7C71.5618 46.4 71.7618 47.2 71.7618 48.1C71.7618 49.3 71.2618 50.4 70.5618 51.2C71.2618 52 71.7618 53.1 71.7618 54.3C71.7618 55.2 71.5618 56 71.0618 56.7C71.7618 56.2 72.5618 56 73.4618 56C75.9618 56 77.9618 58 77.9618 60.5C77.9618 61.4 77.7618 62.2 77.2618 62.9C77.9618 62.4 78.7618 62.2 79.6618 62.2C80.8618 62.2 81.9618 62.7 82.7618 63.4C83.5618 62.7 84.6618 62.2 85.8618 62.2C86.7618 62.2 87.5618 62.4 88.2618 62.9C87.7618 62.2 87.5618 61.4 87.5618 60.5C87.5618 59.6 87.7618 58.8 88.2618 58.1C87.5618 58.6 86.7618 58.8 85.8618 58.8C83.3618 58.8 81.3618 56.8 81.3618 54.3C81.3618 53.4 81.5618 52.6 82.0618 51.9C81.3618 52.4 80.5618 52.6 79.6618 52.6Z" fill="#00CC25" style="fill:#00CC25;fill:color(display-p3 0.0000 0.8016 0.1470);fill-opacity:1;"/>
<path d="M123.023 9.19999C121.823 9.19999 120.723 8.7 119.923 8C119.123 8.7 118.023 9.19999 116.823 9.19999C114.323 9.19999 112.323 7.2 112.323 4.69999C112.323 2.2 114.323 0.199997 116.823 0.199997C118.023 0.199997 119.123 0.699996 119.923 1.39999C120.723 0.699996 121.823 0.199997 123.023 0.199997C124.223 0.199997 125.323 0.699996 126.123 1.39999C126.923 0.699996 128.023 0.199997 129.223 0.199997C130.423 0.199997 131.523 0.699996 132.323 1.39999C133.123 0.699996 134.223 0.199997 135.423 0.199997C136.623 0.199997 137.723 0.699996 138.523 1.39999C139.323 0.699996 140.423 0.199997 141.623 0.199997C142.823 0.199997 143.923 0.699996 144.723 1.39999C145.523 0.699996 146.623 0.199997 147.823 0.199997C149.023 0.199997 150.123 0.699996 150.923 1.39999C151.723 0.699996 152.823 0.199997 154.023 0.199997C156.523 0.199997 158.523 2.2 158.523 4.69999C158.523 5.9 158.023 6.99999 157.323 7.79999C158.023 8.6 158.523 9.69999 158.523 10.9C158.523 13.4 156.523 15.4 154.023 15.4C153.123 15.4 152.323 15.2 151.623 14.7C152.123 15.4 152.323 16.2 152.323 17.1C152.323 19.6 150.323 21.6 147.823 21.6C146.923 21.6 146.123 21.4 145.423 20.9C145.923 21.6 146.123 22.4 146.123 23.3C146.123 25.8 144.123 27.8 141.623 27.8C140.723 27.8 139.923 27.6 139.223 27.1C139.723 27.8 139.923 28.6 139.923 29.5C139.923 30.4 139.723 31.2 139.223 31.9C139.923 31.4 140.723 31.2 141.623 31.2C144.123 31.2 146.123 33.2 146.123 35.7C146.123 36.6 145.923 37.4 145.423 38.1C146.123 37.6 146.923 37.4 147.823 37.4C150.323 37.4 152.323 39.4 152.323 41.9C152.323 42.8 152.123 43.6 151.623 44.3C152.323 43.8 153.123 43.6 154.023 43.6C156.523 43.6 158.523 45.6 158.523 48.1C158.523 49.3 158.023 50.4 157.323 51.2C158.023 52 158.523 53.1 158.523 54.3C158.523 56.8 156.523 58.8 154.023 58.8C153.123 58.8 152.323 58.6 151.623 58.1C152.123 58.8 152.323 59.6 152.323 60.5C152.323 63 150.323 65 147.823 65C146.923 65 146.123 64.8 145.423 64.3C145.923 65 146.123 65.8 146.123 66.7C146.123 69.2 144.123 71.2 141.623 71.2C140.423 71.2 139.323 70.7 138.523 70C137.723 70.7 136.623 71.2 135.423 71.2C134.223 71.2 133.123 70.7 132.323 70C131.523 70.7 130.423 71.2 129.223 71.2C128.023 71.2 126.923 70.7 126.123 70C125.323 70.7 124.223 71.2 123.023 71.2C120.523 71.2 118.523 69.2 118.523 66.7C118.523 65.8 118.723 65 119.223 64.3C118.523 64.8 117.723 65 116.823 65C114.323 65 112.323 63 112.323 60.5C112.323 59.3 112.823 58.2 113.523 57.4C112.823 56.6 112.323 55.5 112.323 54.3C112.323 51.8 114.323 49.8 116.823 49.8C118.023 49.8 119.123 50.3 119.923 51C120.723 50.3 121.823 49.8 123.023 49.8C125.523 49.8 127.523 51.8 127.523 54.3C127.523 55.5 127.023 56.6 126.323 57.4C127.023 58.2 127.523 59.3 127.523 60.5C127.523 61.4 127.323 62.2 126.823 62.9C127.523 62.4 128.323 62.2 129.223 62.2C130.423 62.2 131.523 62.7 132.323 63.4C133.123 62.7 134.223 62.2 135.423 62.2C136.323 62.2 137.123 62.4 137.823 62.9C137.323 62.2 137.123 61.4 137.123 60.5C137.123 58 139.123 56 141.623 56C142.523 56 143.323 56.2 144.023 56.7C143.523 56 143.323 55.2 143.323 54.3C143.323 53.1 143.823 52 144.523 51.2C143.823 50.4 143.323 49.3 143.323 48.1C143.323 47.2 143.523 46.4 144.023 45.7C143.323 46.2 142.523 46.4 141.623 46.4C139.123 46.4 137.123 44.4 137.123 41.9C137.123 41 137.323 40.2 137.823 39.5C137.123 40 136.323 40.2 135.423 40.2C134.223 40.2 133.123 39.7 132.323 39C131.523 39.7 130.423 40.2 129.223 40.2C128.023 40.2 126.923 39.7 126.123 39C125.323 39.7 124.223 40.2 123.023 40.2C120.523 40.2 118.523 38.2 118.523 35.7C118.523 33.2 120.523 31.2 123.023 31.2C123.923 31.2 124.723 31.4 125.423 31.9C124.923 31.2 124.723 30.4 124.723 29.5C124.723 27 126.723 25 129.223 25C130.123 25 130.923 25.2 131.623 25.7C131.123 25 130.923 24.2 130.923 23.3C130.923 20.8 132.923 18.8 135.423 18.8C136.323 18.8 137.123 19 137.823 19.5C137.323 18.8 137.123 18 137.123 17.1C137.123 14.6 139.123 12.6 141.623 12.6C142.523 12.6 143.323 12.8 144.023 13.3C143.523 12.6 143.323 11.8 143.323 10.9C143.323 10 143.523 9.19999 144.023 8.5C143.323 9 142.523 9.19999 141.623 9.19999C140.423 9.19999 139.323 8.7 138.523 8C137.723 8.7 136.623 9.19999 135.423 9.19999C134.223 9.19999 133.123 8.7 132.323 8C131.523 8.7 130.423 9.19999 129.223 9.19999C128.023 9.19999 126.923 8.7 126.123 8C125.323 8.7 124.223 9.19999 123.023 9.19999Z" fill="#00CC25" style="fill:#00CC25;fill:color(display-p3 0.0000 0.8016 0.1470);fill-opacity:1;"/>
</svg>
